<svg id="Beach" enable-background="new 0 0 64 64" height="512" viewBox="0 0 64 64" width="512" xmlns="http://www.w3.org/2000/svg"><path d="m49.334 54.694c-.217 0-.407-.077-.548-.23-.141-.139-.217-.331-.217-.535 0-.102.012-.204.051-.293.039-.09.09-.179.166-.243.28-.293.79-.293 1.083 0 .065.063.128.153.167.243.037.088.051.19.051.293 0 .204-.077.396-.218.535-.151.153-.343.23-.535.23zm3.454-4.334c.153-.141.23-.331.23-.535s-.077-.408-.23-.548c-.28-.281-.789-.281-1.07 0-.153.139-.229.344-.229.548s.076.395.229.535c.063.076.153.127.243.166s.19.051.293.051c.203 0 .395-.076.534-.217zm4.577-10.299c.152-.153.229-.344.229-.548 0-.09-.012-.192-.051-.294-.039-.088-.102-.178-.166-.241-.294-.294-.803-.281-1.084 0-.139.139-.229.344-.229.535 0 .204.077.395.229.548.141.141.332.217.536.217s.395-.076.536-.217zm-24.829 18.087c.141-.153.217-.345.217-.549s-.076-.395-.217-.535c-.217-.217-.56-.28-.841-.166-.088.039-.178.09-.241.166-.141.141-.23.331-.23.535s.077.396.23.549c.139.139.331.217.535.217.203 0 .394-.077.547-.217zm27.671-20.368c.09-.039.178-.09.243-.166.153-.14.229-.331.229-.535 0-.102-.025-.204-.063-.293-.039-.09-.09-.179-.166-.255-.281-.28-.79-.28-1.084 0-.063.077-.127.153-.166.255-.039.089-.051.191-.051.293 0 .204.077.395.23.535.139.141.331.229.535.229.102 0 .203-.024.293-.063zm-6.042 16.161c.141-.139.23-.331.23-.535 0-.203-.09-.395-.23-.535-.28-.293-.803-.293-1.083 0-.141.141-.217.332-.217.535 0 .204.076.396.217.535.153.153.344.23.548.23s.395-.077.535-.23zm-25.823 3.595c.153-.153.23-.344.23-.548s-.089-.396-.23-.535c-.28-.294-.79-.294-1.084 0-.14.139-.217.331-.217.535s.077.395.217.548c.153.141.344.217.548.217s.396-.077.536-.217zm15.003-11.038c.152-.153.229-.344.229-.548s-.077-.395-.217-.535c-.294-.294-.803-.294-1.084 0-.139.141-.229.331-.229.535s.077.395.229.548c.141.141.332.217.536.217.203-.001.395-.077.536-.217zm-18.547-13.072c0-.423-.342-.765-.765-.765h-23.268c-.423 0-.765.342-.765.765s.342.765.765.765h23.268c.423 0 .765-.342.765-.765zm-4.742 2.449c.423 0 .765.342.765.765s-.342.765-.765.765h-4.429c-.423 0-.765-.342-.765-.765s.342-.765.765-.765zm-10.553 5.634c-.423 0-.765-.342-.765-.764s.342-.764.765-.764h2.577c.423 0 .765.342.765.764s-.342.764-.765.764zm-.744 5.021c0-.422.342-.764.765-.764h3.502c.423 0 .765.342.765.764s-.342.764-.765.764h-3.502c-.423 0-.765-.342-.765-.764zm-1.065-9.168c.423 0 .765.343.765.765s-.342.764-.765.764h-1.614c-.423 0-.765-.342-.765-.764s.342-.765.765-.765zm.292 11.711c0 .422-.342.764-.765.764h-2.084c-.423 0-.765-.342-.765-.764s.342-.764.765-.764h2.084c.423 0 .765.342.765.764zm55.284-20.489c-4.448-.199-8.649-.039-12.827.465l-1.395-5.226c-.11-.406-.523-.653-.936-.541-.408.109-.651.528-.543.936l3.109 11.645c.054.199-.066.405-.264.458-.134.034-.235-.009-.284-.038-.05-.029-.139-.096-.173-.227l-3.754-14.061 1.252-.335c.8-.213 1.423-.752 1.782-1.432.032.02.059.047.092.066.441.255.93.385 1.426.385.246 0 .495-.033.742-.098l1.659-.443c.8-.214 1.422-.752 1.78-1.433.033.021.06.047.093.067.66.381 1.426.485 2.168.287l1.657-.443c.738-.196 1.354-.668 1.736-1.329.382-.66.484-1.43.288-2.166l-.239-.899c-1.846-6.916-9.156-11.083-16.8-9.896l-.284-1.063c-.269-1.012-1.309-1.614-2.33-1.347-1.013.271-1.618 1.316-1.348 2.329l.288 1.079c-7.141 2.814-11.342 10.024-9.508 16.902l.24.899c.342 1.275 1.5 2.119 2.762 2.119.243 0 .489-.031.736-.097l1.659-.443c.799-.214 1.421-.752 1.78-1.433.033.021.06.047.093.067.441.255.93.385 1.425.385.248 0 .497-.033.743-.098l1.657-.443c.738-.196 1.354-.668 1.736-1.329.019-.034.03-.07.048-.104.34.215.722.362 1.126.419l1.988 7.432c-2.211.371-4.31.791-6.326 1.207-3.905.805-7.593 1.566-11.864 1.855-.354.024-.645.289-.703.639s.133.695.461.831c.958.398 2.235.82 3.587 1.268 3.206 1.06 8.573 2.835 8.437 4.402-.076.869-3.983 1.553-6.317 1.962-4.17.729-8.108 1.419-8.532 3.732-.308 1.659 1.708 2.691 3.658 3.689.804.411 2.687 1.374 2.645 1.779-.112 1.036-6.574 1.84-10.045 2.273-6.757.841-13.139 1.637-13.742 4.497-.283 1.318.647 2.677 2.928 4.277.134.093.287.138.439.138.241 0 .478-.113.627-.325.243-.346.159-.823-.187-1.065-2.268-1.591-2.372-2.421-2.311-2.706.379-1.796 7.634-2.7 12.436-3.298 7.112-.886 11.147-1.491 11.377-3.627.153-1.45-1.607-2.351-3.469-3.303-1.031-.528-2.951-1.511-2.851-2.05.232-1.267 4.312-1.982 7.292-2.503 4.134-.723 7.398-1.294 7.576-3.335.243-2.773-4.7-4.407-9.48-5.988-.097-.032-.193-.063-.289-.095 2.984-.38 5.752-.951 8.636-1.546 2.047-.422 4.174-.849 6.413-1.222l1.433 5.367c.131.492.446.902.886 1.156.293.171.619.256.95.256.164 0 .33-.021.494-.065 1.013-.271 1.618-1.316 1.348-2.329l-1.315-4.924c4.023-.473 8.075-.623 12.358-.432.474.012.78-.308.799-.73.019-.424-.308-.782-.729-.801zm-10.508-9.923-1.658.443c-.346.091-.701.044-1.008-.134-.306-.177-.525-.464-.616-.806l-.24-.899c-.927-3.47-2.102-6.659-3.311-8.978-.484-.929-.95-1.664-1.403-2.236 3.716.465 7.445 4.501 8.936 10.088l.24.897c.189.707-.233 1.436-.94 1.625zm6.4-4.045.239.9c.092.342.045.699-.132 1.006-.178.307-.464.526-.808.617l-1.657.443c-.345.09-.701.044-1.008-.134-.306-.177-.525-.463-.616-.806v-.001l-.24-.897c-1.223-4.577-3.876-8.205-6.926-10.015 5.306.561 9.824 3.927 11.148 8.887zm-17.804-10.765c-.054-.199.066-.405.264-.458.204-.048.406.067.457.264l.26.972c-.097.024-.579.157-.72.198zm.81 17.237c-.178.307-.464.526-.808.617l-1.657.443c-.344.091-.7.045-1.008-.133-.306-.177-.525-.464-.616-.807l-.24-.897c-.931-3.484-.829-7.065.279-9.825.158-.392-.032-.838-.424-.995-.39-.159-.838.034-.995.424-1.229 3.061-1.352 6.993-.339 10.79l.24.897c.189.707-.233 1.436-.94 1.625l-1.658.443c-.707.189-1.435-.233-1.624-.94l-.24-.899c-1.623-6.082 2.114-12.468 8.466-15.034-.148.773-.199 1.751-.149 2.952.11 2.613.68 5.963 1.606 9.432l.239.894c.001.002 0 .004 0 .006.093.343.045.7-.132 1.007zm1.611-1.4-.239-.899c-1.988-7.444-1.768-12.163-1.131-12.608.002-.001.005-.002.007-.002.812.055 3.356 4.035 5.344 11.483l.24.899c.189.707-.233 1.436-.94 1.624l-1.658.443c-.706.187-1.434-.235-1.623-.94z"/></svg>