<svg id="Capa_1" enable-background="new 0 0 512 512" height="512" viewBox="0 0 512 512" width="512" xmlns="http://www.w3.org/2000/svg"><g><path d="m268.585 347.259 61.605 70.671-5.439-44.886-43.833-33.14z" fill="#71d5b4"/><path d="m330.19 417.93c-21.675-54.558-60.76-70.341-61.605-70.671l-.01-.01h-164.16s-75.749 29.628-75.749 152.384h315.658c0-33.882-5.769-60.677-14.134-81.703z" fill="#475066"/><path d="m76.604 366.623c31.731 20.384 69.454 32.217 109.889 32.217 40.437 0 78.162-11.835 109.894-32.221-14.762-14.103-27.328-19.174-27.803-19.36l-.01-.01h-164.159s-12.763 5-27.811 19.374z" fill="#303646"/><path d="m104.41 347.25h51.346v152.383h-51.346z" fill="#fbae98"/><path d="m217.231 347.25h51.346v152.383h-51.346z" fill="#fbae98" transform="matrix(-1 0 0 -1 485.807 846.883)"/><path d="m217.231 396.524c17.991-2.732 35.211-7.833 51.346-14.959v-34.315h-51.346z" fill="#fb8a71"/><path d="m104.41 381.565c16.135 7.125 33.355 12.226 51.346 14.958v-49.273h-51.346z" fill="#fb8a71"/><circle cx="186.493" cy="194.96" fill="#475066" r="172.973"/><path d="m65.079 201.671c0-88.224 65.385-155.886 148.214-177.615-8.735-1.359-17.684-2.069-26.799-2.069-95.531 0-172.974 77.443-172.974 172.973 0 83.961 59.824 153.941 139.169 169.661-52.79-34.966-87.61-94.888-87.61-162.95z" fill="#303646"/><path d="m366.103 144.694c-10.348-36.91-44.282-62.229-82.615-62.229h-193.988c-38.333 0-72.267 25.319-82.615 62.229-4.486 15.997-6.885 32.856-6.885 50.266 0 .189 0 .378.001.567.09 29.811 24.529 53.828 54.341 53.828h264.304c29.812 0 54.251-24.017 54.341-53.828.001-.189.001-.378.001-.567-.001-17.41-2.4-34.269-6.885-50.266z" fill="#fbae98"/><path d="m65.079 201.671c0-46.776 18.387-87.768 48.001-119.205h-23.581c-38.333 0-72.267 25.319-82.615 62.229-4.485 15.996-6.884 32.855-6.884 50.265 0 .189 0 .378.001.567.09 29.811 24.529 53.828 54.341 53.828h16.611c-3.83-15.262-5.874-31.234-5.874-47.684z" fill="#fb8a71"/><path d="m54.341 204.289c-5.094 0-9.251-3.983-9.274-8.882l-.001-.447c0-12.947 1.753-25.766 5.211-38.1 4.841-17.268 20.969-29.328 39.221-29.328h193.988c18.252 0 34.381 12.06 39.222 29.328 3.457 12.334 5.211 25.153 5.211 38.1l-.001.432c-.014 4.906-4.174 8.897-9.274 8.897z" fill="#fbd8ca"/><path d="m250.284 248.321c0 35.231-28.56 52.524-63.791 52.524s-63.791-17.293-63.791-52.524 28.56-75.057 63.791-75.057 63.791 39.827 63.791 75.057z" fill="#303646"/><g><g><path d="m104.41 184.8c-4.267 0-7.726-3.459-7.726-7.726v-15.773c0-4.267 3.459-7.726 7.726-7.726s7.726 3.459 7.726 7.726v15.773c.001 4.267-3.459 7.726-7.726 7.726z" fill="#303646"/></g><g><path d="m268.576 184.8c-4.267 0-7.726-3.459-7.726-7.726v-15.773c0-4.267 3.459-7.726 7.726-7.726s7.726 3.459 7.726 7.726v15.773c0 4.267-3.459 7.726-7.726 7.726z" fill="#303646"/></g></g><path d="m147.048 408.025h-33.93c-11.626 0-21.05 9.424-21.05 21.05 0 11.626 9.424 21.05 21.05 21.05h33.93c11.626 0 21.05-9.424 21.05-21.05 0-11.626-9.424-21.05-21.05-21.05z" fill="#7cdcf9"/><path d="m225.938 408.025h33.93c11.626 0 21.05 9.424 21.05 21.05 0 11.626-9.424 21.05-21.05 21.05h-33.93c-11.626 0-21.05-9.424-21.05-21.05 0-11.626 9.425-21.05 21.05-21.05z" fill="#7cdcf9"/><g><g><path d="m330.19 417.93c-21.675-54.558-60.76-70.341-61.605-70.671l-.01-.01-87.143-70.939c-11.147-8.468-13.31-24.374-4.842-35.52 8.468-11.147 24.374-13.31 35.521-4.842l81.59 62.017c37.488 28.505 51.303 77.088 36.489 119.965z" fill="#71d5b4"/></g></g><circle cx="435.65" cy="154.301" fill="#7cdcf9" r="28.084"/><circle cx="474.641" cy="49.725" fill="#7cdcf9" r="37.359"/><path d="m65.079 201.671c0-26.545 5.93-51.224 16.462-73.357-14.833 2.921-27.141 13.843-31.263 28.547-3.458 12.333-5.211 25.153-5.211 38.1l.001.447c.023 4.899 4.18 8.882 9.274 8.882h10.771c-.012-.873-.034-1.744-.034-2.619z" fill="#fbc6b9"/><g fill="#2fc9f5"><path d="m452.504 168.839c-15.493 0-28.052-12.559-28.052-28.052 0-4.885 1.251-9.476 3.446-13.476-11.738 3.366-20.331 14.172-20.331 26.991 0 15.51 12.573 28.083 28.084 28.083 10.647 0 19.91-5.926 24.672-14.659-2.484.719-5.105 1.113-7.819 1.113z"/><path d="m494.364 65.45c-23.102 0-41.83-18.728-41.83-41.83 0-1.401.072-2.786.206-4.152-9.363 6.789-15.457 17.808-15.457 30.258 0 20.632 16.726 37.359 37.359 37.359 16.14 0 29.888-10.235 35.11-24.568-4.765 1.885-9.953 2.933-15.388 2.933z"/></g></g></svg>