<svg id="Capa_1" enable-background="new 0 0 512.001 512.001" height="512" viewBox="0 0 512.001 512.001" width="512" xmlns="http://www.w3.org/2000/svg"><g><path d="m452.604 423.525v-28.548c.007-39.897-32.541-72.342-72.437-72.214-17.292 0-34.021 6.207-47.107 17.479-3.751 3.231-7.124 6.827-10.106 10.701v-17.738l18.262-15.978c16.669-14.48 25.521-35.937 24.649-57.931 27.536-8.795 47.536-34.619 47.536-65.034v-48.449c0-15.31-9.718-28.391-23.306-33.399-4.404-24.794-15.518-47.766-32.272-66.633v-3.201c0-7.306-3.243-14.148-8.898-18.774l-15.052-12.312c-4.012-3.284-9.417-3.943-14.098-1.723-1.884.893-3.475 2.175-4.711 3.721-37.334-17.993-80.786-17.988-118.117.01-1.236-1.55-2.829-2.836-4.716-3.731-4.681-2.221-10.083-1.565-14.1 1.716l-15.057 12.317c-5.652 4.62-8.895 11.464-8.895 18.777v3.26c-16.71 18.86-27.77 41.774-32.141 66.523-13.658 4.972-23.439 18.087-23.439 33.447v48.449c0 30.415 20 56.238 47.536 65.034-.871 21.995 7.98 43.451 24.649 57.931l18.263 15.979v20.313c-3-4.271-6.466-8.246-10.385-11.832-13.388-12.254-30.791-18.98-48.953-18.925-10.281 0-20.21 2.115-29.51 6.287-3.779 1.695-5.469 6.133-3.773 9.912 1.695 3.78 6.136 5.469 9.912 3.773 7.356-3.3 15.22-4.973 23.371-4.973 14.404-.055 28.211 5.274 38.827 14.99 10.227 9.359 16.659 21.996 18.217 35.68-2.568 4.713-7.091 8.269-12.561 9.41l-22.402 4.461c-4.584-4.832-8.532-10.366-11.667-16.513-2.487-4.881-6.728-8.501-11.938-10.192-5.209-1.692-10.769-1.254-15.649 1.235-4.881 2.487-8.5 6.728-10.192 11.938-1.691 5.21-1.253 10.768 1.235 15.648 1.173 2.302 2.42 4.549 3.732 6.741l-28.371 5.65c-2.189.436-4.339.967-6.452 1.58v-23.407c0-11.652 3.478-22.857 10.056-32.404 2.351-3.411 1.49-8.081-1.92-10.432-3.413-2.352-8.082-1.491-10.432 1.92-8.312 12.062-12.704 26.211-12.704 40.916v29.542c-24.661 13.252-41.009 39.306-41.009 68.41v11.567c0 4.143 3.357 7.5 7.5 7.5s7.5-3.357 7.5-7.5v-11.567c0-26.396 16.666-49.681 40.795-58.676l6.487 10.494c11.105 17.966 16.976 38.627 16.976 59.749 0 4.143 3.357 7.5 7.5 7.5s7.5-3.357 7.5-7.5c0-23.91-6.645-47.298-19.216-67.636l-4-6.471 29.234-5.822c1.563 1.619 4.077 7.001 5.327 8.964 12.151 21.622 18.574 46.162 18.574 70.965 0 4.143 3.357 7.5 7.5 7.5s7.5-3.357 7.5-7.5c0-3.587-.129-7.169-.371-10.739h199.53c-.241 3.576-.377 7.157-.377 10.739 0 4.143 3.357 7.5 7.5 7.5s7.5-3.357 7.5-7.5c0-11.184 1.305-22.379 3.878-33.276.952-4.031-1.544-8.071-5.575-9.022-4.025-.958-8.071 1.543-9.022 5.575-.858 3.634-1.572 7.3-2.174 10.984h-93.998v-44.201c0-.172-.014-.341-.026-.51 3.793-5.317 6.915-11.144 9.201-17.375 15.417-2.427 29.988-8.379 42.683-17.42 4.817 6.637 12.008 11.53 20.477 13.3l42.917 8.545-2.86 5.09c-1.358 2.42-2.615 4.8-3.736 7.072-1.833 3.715-.308 8.212 3.407 10.044 1.067.526 2.198.776 3.312.776 2.766 0 5.426-1.536 6.731-4.184 1.005-2.036 2.137-4.179 3.364-6.365l5.253-9.353 31.204 6.213-4 6.472c-12.571 20.338-19.216 43.726-19.216 67.636 0 4.143 3.357 7.5 7.5 7.5s7.5-3.357 7.5-7.5c0-21.122 5.87-41.783 16.976-59.749l6.488-10.496c24.128 8.994 40.794 32.277 40.794 58.674v11.57c0 4.143 3.357 7.5 7.5 7.5s7.5-3.357 7.5-7.5v-11.57c.003-29.849-17.188-56.494-42.912-69.404zm-94.781-353.024c7.836 12.126 13.442 25.553 16.553 39.731h-16.553zm-30.643-45.105 12.246 10.018c2.158 1.766 3.396 4.377 3.396 7.165v67.653h-15.642zm-158 17.185c0-2.793 1.234-5.403 3.39-7.165l12.251-10.022v29.138c0 4.143 3.357 7.5 7.5 7.5s7.5-3.357 7.5-7.5v-25.693c35.207-18.449 77.147-18.458 112.359-.019v81.411h-112.359v-20.7c0-4.143-3.357-7.5-7.5-7.5s-7.5 3.357-7.5 7.5v20.7h-15.641zm-15 28.024v39.626h-16.44c3.081-14.138 8.649-27.524 16.44-39.626zm-40.58 123.656v-48.449c0-11.348 9.228-20.58 20.57-20.58h243.66c11.343 0 20.57 9.232 20.57 20.58v48.449c0 29.367-23.893 53.26-53.261 53.26h-52.12c-2.921 0-5.648-1.299-7.48-3.559l-11.129-13.75c-4.7-5.807-11.663-9.127-19.127-9.127-.062 0-.125.001-.188.001-7.542.057-14.538 3.491-19.198 9.428l-10.447 13.326c-1.836 2.339-4.596 3.681-7.57 3.681h-51.02c-29.367 0-53.26-23.893-53.26-53.26zm160.275 59.13v7.333c0 1.371-1.115 2.486-2.486 2.486h-32.678c-1.371 0-2.486-1.115-2.486-2.486v-6.406c.353-.395.698-.8 1.028-1.221l10.447-13.326c1.821-2.32 4.559-3.664 7.508-3.686.024 0 .049-.001.073-.001 2.916 0 5.635 1.297 7.471 3.564zm-96.684 159.147c8.434-1.76 15.609-6.651 20.418-13.289 8.812 6.263 18.598 11.081 28.912 14.243-5.97 6.469-14.512 10.531-23.988 10.531-12.704 0-24.815-3.383-35.31-9.5zm26.393-27.517c.302-1.804.465-3.648.465-5.521v-33.172l6.902 6.039c2.068 1.81 4.293 3.449 6.632 4.902 3.878 7.189 10.083 12.939 17.599 16.249v17.857c0 3-.415 5.904-1.177 8.666-11-2.923-21.383-8.042-30.421-15.02zm43.965 93.741h-93.989c-1.624-9.93-4.18-19.695-7.632-29.146 16.781 9.929 36.21 15.427 56.604 15.427 16.944 0 32.557-5.764 45.017-15.415zm13.652-87.387c0 32.35-26.318 58.668-58.668 58.668-36.304 0-69.1-20.093-85.588-52.438-.668-1.312-.786-2.805-.332-4.204.455-1.399 1.427-2.538 2.739-3.207 1.311-.67 2.805-.787 4.203-.332 1.399.454 2.538 1.427 3.207 2.738 14.598 28.635 43.632 46.423 75.771 46.423 26.273 0 47.648-21.375 47.648-47.648v-14.755h11.02zm.869-29.755h-12.139c-11.981 0-21.729-9.748-21.729-21.729v-28.322c0-3.058 2.488-5.546 5.546-5.546h44.506c3.058 0 5.546 2.488 5.546 5.546v28.322c-.001 11.981-9.749 21.729-21.73 21.729zm13.527 39.023c.383-3.039.604-6.127.604-9.268v-17.585c7.795-3.261 14.234-9.134 18.218-16.52 2.336-1.451 4.561-3.09 6.631-4.901l6.904-6.041v33.169c0 1.875.162 3.72.465 5.525-9.742 7.529-20.914 12.834-32.822 15.621zm23.202-66.237v-22.838c0-11.329-9.217-20.546-20.546-20.546h-44.506c-11.329 0-20.546 9.217-20.546 20.546v22.838l-32.539-28.469c-12.508-10.939-19.637-26.801-19.526-43.416h60.2c.904 8.798 8.341 15.69 17.374 15.69h32.678c9.033 0 16.461-6.893 17.367-15.69h62.106c.106 16.606-7.012 32.479-19.522 43.416zm138.805 83.468c-26.294-5.684-73.157-14.595-99.721-20.015-6.766-1.414-12.065-6.453-14.06-12.804 4.783-27.454 28.332-47.292 56.344-47.292 31.624-.128 57.444 25.588 57.437 57.214z"/><path d="m212.26 233.871c2.304 0 4.479-1.059 5.9-2.871l6.99-8.909c7.31-9.316 18.288-14.66 30.119-14.66 11.604 0 22.447 5.173 29.752 14.191l7.67 9.47c1.424 1.758 3.565 2.779 5.828 2.779h16.921c4.143 0 7.5-3.357 7.5-7.5s-3.357-7.5-7.5-7.5h-13.344l-5.419-6.69c-10.166-12.552-25.259-19.75-41.408-19.75-16.469 0-31.748 7.436-41.92 20.401l-4.738 6.039h-41.751c-13.57 0-24.61-11.04-24.61-24.61v-40.37h227.5v40.37c0 12.082-8.639 22.29-20.541 24.271-4.086.681-6.847 4.545-6.167 8.63.681 4.086 4.553 6.848 8.63 6.167 19.167-3.191 33.078-19.622 33.078-39.068v-47.87c0-4.143-3.357-7.5-7.5-7.5h-242.5c-4.143 0-7.5 3.357-7.5 7.5v47.87c0 21.841 17.77 39.61 39.61 39.61z"/><circle cx="256.001" cy="333.821" r="7.5"/></g></svg>