<svg id="Layer_1" enable-background="new 0 0 314.858 223.023" height="512" viewBox="0 0 314.858 223.023" width="512" xmlns="http://www.w3.org/2000/svg"><g><path d="m15.583 147.648c11.092-.363 54.599-1.849 67.322-2.284l.808-.027c.513-.102 1.032-.177 1.552-.227 1.676-5.708 3.279-13.622 1.888-20.041-11.103-2.127-55.91-10.713-67.105-12.875-25.661-4.955-17.145 15.01-11.701 24.798 2.072 3.725 1.162 7.768-.112 11.479 2.14-.455 4.579-.733 7.348-.823zm-3.42-30.303c.487.109 48.933 10.958 68.972 11.956l-.149 2.996c-20.296-1.01-67.482-11.576-69.481-12.025z"/><path d="m89.395 145.278c1.142.199 2.262.513 3.346.969l46.319 19.5 30.094-16.279c.025-.364.061-.73.107-1.099l-32.826 9.17-42.016-30.119c-.966-.693-1.999-1.217-3.064-1.598.975 6.526-.394 13.862-1.96 19.456z"/><path d="m83.971 148.329c-11.298.386-56.894 1.944-68.29 2.317-26.121.855-13.392 18.436-5.915 26.774s-4.623 23.381 7.341 23.112c8.748-.197 48.118-16.298 68.663-24.944.532-3.252 2.576-17.885-1.799-27.259zm-74.831 12.088-.007-3c.499-.001 50.145-.159 69.907-3.627l.519 2.955c-20.017 3.513-68.37 3.667-70.419 3.672z"/><path d="m291.98 131.007c3.599-2.078 7.513-2.037 8.743.093.178.309.283.647.333 1.002 1.463-1.649 2.665-3.496 3.583-5.473.736-.415 1.484-1.112 2.093-2.295 2.39-4.635 1.293-14.231-.638-17.573-.622-1.077-1.798-1.789-3.248-2.252-5.877-8.669-17.225-12.308-27.269-8.122-4.593 1.914-8.212 5.175-10.599 9.132l19.205 2.474c-.757 1.367-1.086 3.012-.991 4.914l-20.379-2.625c-1.58 4.914-1.491 10.392.65 15.529 4.144 9.945 14.595 15.338 24.777 13.485-.217-.194-.404-.416-.551-.67-1.229-2.13.692-5.541 4.291-7.619zm-4.955-21.928c1.024-1.476 2.669-1.729 2.784-1.746l.058-.008c5.786-.926 12.643-.771 13.63.936 1.505 2.605 2.384 11.176.569 14.698-.591 1.147-1.188 1.204-1.412 1.225-4.481.427-14.335-1.253-16.146-9.174-.592-2.589-.418-4.585.517-5.931z"/><path d="m154.456 113.317c-8.295 2.938 2.387 33.102 10.682 30.164l74.468-26.372c8.066-2.857 12.413-11.624 9.946-19.733.691-.455 1.356-.915 1.986-1.381.165-.122.312-.246.473-.368 1.24-.858 2.234-1.713 3.033-2.551 6.419-6.078 8.192-12.544 6.722-17.119-1.89-5.883-8.456-8.84-17.556-7.91-6.834.698-9.877 3.208-11.815 6.537-8.952.925-10.732 4.857-12.765 9.405-.657 1.468-1.359 3.036-2.39 4.654-.709 1.113-1.575 2.249-2.69 3.392zm75.971-26.82c.463-.875.866-1.733 1.228-2.568.483-1.114.897-2.188 1.288-3.205.46-1.198.883-2.287 1.344-3.276 10.815-.625 19.275 3.521 20.526 7.999.511 1.831-.171 3.728-1.944 5.58-.739.686-1.557 1.369-2.437 2.046-.05.035-.104.07-.154.104-.601.413-1.257.821-1.968 1.223-3.443-6.327-10.82-9.649-17.883-7.903zm14.089-15.466c7.591-.775 12.97 1.41 14.396 5.843.706 2.196.399 4.981-1.155 7.973-.018-.071-.035-.141-.054-.209-1.703-6.099-10.829-10.307-21.479-10.253 1.609-1.777 3.992-2.914 8.292-3.354zm-23.03 16.108c.318-.663.608-1.308.884-1.925 1.742-3.898 2.883-6.418 8.492-7.4-.243.6-.48 1.211-.719 1.834-.636 1.655-1.31 3.411-2.246 5.221-.527 1.02-1.141 2.057-1.874 3.103l-6.192 2.193c.657-1.042 1.189-2.055 1.655-3.026z"/><path d="m307.632 94.25c1.657 0 3-1.343 3-3s-1.343-3-3-3-3 1.343-3 3 1.343 3 3 3zm-.032-4.625c.915 0 1.656.742 1.656 1.656s-.742 1.656-1.656 1.656c-.915 0-1.656-.742-1.656-1.656s.742-1.656 1.656-1.656z"/><path d="m314.632 76.958c0-2.416-1.959-4.375-4.375-4.375s-4.375 1.959-4.375 4.375 1.959 4.375 4.375 4.375 4.375-1.958 4.375-4.375zm-4.325 3.279c-1.657 0-3-1.343-3-3s1.343-3 3-3 3 1.343 3 3-1.343 3-3 3z"/><path d="m301.715 70.75c3.452 0 6.25-2.798 6.25-6.25s-2.798-6.25-6.25-6.25-6.25 2.798-6.25 6.25 2.798 6.25 6.25 6.25zm-.021-10.5c2.451 0 4.438 1.987 4.438 4.438s-1.987 4.438-4.438 4.438-4.438-1.987-4.438-4.438c.001-2.451 1.987-4.438 4.438-4.438z"/><path d="m303.673 40.667c-3.429 0-6.208 2.78-6.208 6.208s2.78 6.208 6.208 6.208 6.208-2.78 6.208-6.208-2.779-6.208-6.208-6.208zm.084 10.958c-2.347 0-4.25-1.903-4.25-4.25s1.903-4.25 4.25-4.25 4.25 1.903 4.25 4.25-1.903 4.25-4.25 4.25z"/><path d="m291.215 22.833c-4.096 0-7.417 3.32-7.417 7.417s3.321 7.417 7.417 7.417 7.417-3.321 7.417-7.417-3.321-7.417-7.417-7.417zm.167 13.084c-2.853 0-5.167-2.313-5.167-5.167s2.313-5.167 5.167-5.167 5.167 2.313 5.167 5.167-2.314 5.167-5.167 5.167z"/><path d="m214.045 25.567c0-3.176-2.574-5.75-5.75-5.75s-5.75 2.574-5.75 5.75 2.574 5.75 5.75 5.75 5.75-2.575 5.75-5.75zm-9.383.25c0-2.071 1.679-3.75 3.75-3.75s3.75 1.679 3.75 3.75-1.679 3.75-3.75 3.75-3.75-1.679-3.75-3.75z"/><path d="m238.465 29.917c0 3.176 2.574 5.75 5.75 5.75s5.75-2.574 5.75-5.75-2.574-5.75-5.75-5.75-5.75 2.574-5.75 5.75zm5.975-3.534c2.048 0 3.708 1.66 3.708 3.708s-1.66 3.708-3.708 3.708-3.708-1.66-3.708-3.708 1.66-3.708 3.708-3.708z"/><path d="m251.298 13.667c3.774 0 6.833-3.059 6.833-6.833s-3.059-6.833-6.833-6.833-6.833 3.059-6.833 6.833c0 3.773 3.059 6.833 6.833 6.833zm.034-11.467c2.568 0 4.65 2.082 4.65 4.65s-2.082 4.65-4.65 4.65-4.65-2.082-4.65-4.65 2.082-4.65 4.65-4.65z"/><path d="m269.132 35.25c4.142 0 7.5-3.358 7.5-7.5s-3.358-7.5-7.5-7.5-7.5 3.358-7.5 7.5 3.358 7.5 7.5 7.5zm.3-12.183c2.761 0 5 2.239 5 5s-2.239 5-5 5-5-2.239-5-5c0-2.762 2.238-5 5-5z"/><path d="m234.437 17.167c0-3.176-2.574-5.75-5.75-5.75s-5.75 2.574-5.75 5.75 2.574 5.75 5.75 5.75c3.175 0 5.75-2.575 5.75-5.75zm-9.234.175c0-2.048 1.66-3.708 3.708-3.708s3.708 1.66 3.708 3.708-1.66 3.708-3.708 3.708c-2.047 0-3.708-1.66-3.708-3.708z"/><path d="m202.937 12.417c3.176 0 5.75-2.574 5.75-5.75s-2.574-5.75-5.75-5.75-5.75 2.574-5.75 5.75 2.574 5.75 5.75 5.75zm.225-9.284c2.048 0 3.708 1.66 3.708 3.708s-1.66 3.708-3.708 3.708-3.708-1.66-3.708-3.708 1.66-3.708 3.708-3.708z"/><path d="m180.908 18.401c0 2.763 2.239 5.002 5.002 5.002 2.762 0 5.002-2.239 5.002-5.002 0-2.762-2.239-5.002-5.002-5.002s-5.002 2.239-5.002 5.002zm5.197-3.074c1.782 0 3.226 1.444 3.226 3.226s-1.444 3.226-3.226 3.226-3.226-1.444-3.226-3.226c.001-1.782 1.445-3.226 3.226-3.226z"/><path d="m170.412 9.567c0-2.763-2.239-5.002-5.002-5.002s-5.002 2.239-5.002 5.002 2.239 5.002 5.002 5.002c2.762 0 5.002-2.239 5.002-5.002zm-8.032.153c0-1.782 1.444-3.226 3.226-3.226s3.226 1.444 3.226 3.226-1.444 3.226-3.226 3.226c-1.782-.001-3.226-1.445-3.226-3.226z"/><path d="m261.446 134.718c-1.497-7.151-8.125-14.671-19.167-16.25-.617.3-1.248.576-1.904.808l-66.215 23.45c-1.558 2.842-2.116 5.727-2.049 8.554l-32.889 17.791-47.646-20.059c-1.095-.461-2.219-.744-3.342-.879 3.796 9.735 2.305 22.767 1.618 27.278l45.195 19.027c1.555.655 3.204.979 4.85.979 2.052 0 4.098-.505 5.948-1.505l44.377-24.006c1.074-.429 2.236-.946 3.504-1.565 11.46-6.685 26.081-10.147 38.581-12.685l-3.074-11.031c-1.524-5.471 1.687-11.162 7.157-12.687 3.702-1.032 7.638.066 10.273 2.867 1.134 1.205 1.969 2.689 2.414 4.292l12.046 43.224 36.754 24.086c.681.445 1.31.972 1.866 1.563 2.281 2.424 3.187 5.696 2.641 8.81l.088.058c3.695 2.422 8.654 1.388 11.076-2.307 2.422-3.696 1.39-8.66-2.307-11.076l-37.477-24.559-6.797-24.389c7.382 4.051 13.082 5.517 17.451 5.516 4.723 0 7.9-1.701 9.991-3.662 4.53-4.248 5.482-11.255 4.225-15.864 2.833-2.08 4.22-4.971 3.131-6.857-.175-.304-.411-.56-.686-.779-1.658-1.314-4.97-1.096-8.056.686-2.715 1.567-4.473 3.893-4.646 5.854-.057.639.053 1.24.355 1.763.945 1.638 3.48 2.035 6.238 1.188.537 3.117-.052 8.048-3.297 11.09-3.799 3.563-10.227 3.461-18.585-.292-2.413-1.084-4.969-2.473-7.648-4.131l-1.781-6.391-2.172-7.792c-.013-.039-.029-.077-.041-.118z"/><path d="m298.923 219.406c2.422-3.696 1.39-8.66-2.307-11.076l-37.477-24.559-12.278-44.058c-1.185-4.259-5.598-6.745-9.853-5.559-4.257 1.186-6.745 5.598-5.559 9.853l13.084 46.955c.35 1.257.999 2.399 1.88 3.335.428.455.912.862 1.442 1.209l39.993 26.206c3.695 2.423 8.654 1.39 11.075-2.306z"/></g></svg>