<svg id="&#x56FE;&#x5C42;_1" enable-background="new 0 0 256 256" viewBox="0 0 256 256" xmlns="http://www.w3.org/2000/svg" xmlns:xlink="http://www.w3.org/1999/xlink"><radialGradient id="SVGID_1_" cx="122.915" cy="62.22" gradientUnits="userSpaceOnUse" r="128.832"><stop offset="0" stop-color="#8bc9e8"/><stop offset="1" stop-color="#2a7ca0"/></radialGradient><g><g><path clip-rule="evenodd" d="m128 23c58 0 105 47 105 105s-47 105-105 105-105-47-105-105 47-105 105-105z" fill="url(#SVGID_1_)" fill-rule="evenodd"/></g><g clip-rule="evenodd" fill="#86fc89" fill-rule="evenodd"><path id="XMLID_3_" d="m128 23c-24 0-45.8 8.4-63.5 21.9 4 .2 8.9-.5 12.9-3.8.4 0-3 5.5.7 9.6 0 .4-17.4.4-17.4 4.8 0 .4 28.5 12.2 30.3.7 1.8-11.4 9.2-23.7 42.2-28.1 14-1.5 22.6 11.5 22.6 11.5s14.8 11.9 28.1 6.3c-.4-.4 12.2 7.4-2.2 10-1.1.3 3.7 6.7 15.6 8.5 0 0 20 21.8 22.9 24.1-.4 0 1.8 28.1 12.3 34.7-2.5-55.7-48.2-100.2-104.5-100.2z"/><path d="m121.1 63c1-.4 2.5-.3 3.4.2l5.7 1.4c1 .3 1.1.2.2-.4 0 0-4.6-2.7-3.1-5.7s9.2-8.1 18.1-8.9c8.9-.7 21 7.4 21 7.4.9.6 1.6 2 1.6 3v7.6c0 1.1.5 2.6 1.2 3.5l3.1 4c.7.8.3 1.5-.7 1.4l-5.7-.4c-1.1-.1-2.6-.7-3.5-1.3l-13.6-10.5c-.8-.7-2.4-1.3-3.5-1.5l-4.3-.6c-1.1-.1-1.9.6-1.9 1.7v.9c0 1.1.8 2.3 1.8 2.6l7.4 2.7c1 .4 2.3 1.4 2.8 2.3l4 6.6c.5.9.1 1.7-1 1.7h-6.8c-1.1 0-2.1-.9-2.2-1.9l-.2-1.7c-.1-1.1-.8-1.9-1.5-1.9s-1.4.9-1.6 1.9l-.5 3.2c-.2 1.1-1.1 2.3-2.1 2.7l-1.3.6c-1 .4-1.9 1.7-2.1 2.7l-.9 6.1c-.2 1.1.6 2.2 1.6 2.5l6.3 1.9c1 .3 2.5 1.2 3.3 1.9l2.3 2.2c.8.7 1.7.5 2.1-.5l1.6-4.1c.4-1 0-2.4-.8-3l-2.5-2c-.8-.7-1.8-2-2.1-3.1l-.3-1.1c-.3-1 .3-1.9 1.4-1.9l9.4-.3c1.1 0 2.7.4 3.6 1l10.1 6.7c.9.6 1.4 1.9 1 2.9l-2.2 7c-.3 1 .2 2.2 1.2 2.6l3.4 1.4c1 .4 1.7 1.6 1.5 2.7l-.1 1c-.2 1.1-1.1 2.1-2.2 2.4l-3.3.9c-1 .3-2.2 1.3-2.6 2.3l-8.7 23c-.4 1-.5 2.7-.2 3.7l1.3 5.5c.3 1-.2 2-1 2.1s-1.9-.6-2.3-1.6l-2.1-4.6c-.4-1-1.7-1.6-2.7-1.3l-17.3 4.5c-1 .3-1.6 1.3-1.3 2.4l3 10.3c.3 1 1.4 1.7 2.5 1.5l9.1-1.6c1.1-.2 2.1.5 2.3 1.6l.4 2.1c.2 1.1 1.2 2 2.3 2 0 0 4 .3 5.1 1.8 1.1 1.4 0 6.6 0 6.6-.2 1 .4 2.1 1.3 2.3s.8.2-.2-.1l-8.4-1.8c-1-.2-2.7-.7-3.7-1.1l-5.3-2.2c-1-.4-2.7-.9-3.7-1.2l-16.6-3.9c-1-.2-2.1-1.3-2.4-2.3l-1.6-6.6c-.3-1-1.1-2.5-1.8-3.3l-5-5c-.8-.8-1.3-.5-1.3.6l.2 3.5c.1 1.1-.5 1.3-1.2.5l-3.3-3.7c-.7-.8-1.3-2.3-1.3-3.4v-3.5c0-1.1-.5-2.7-1.1-3.6l-7.5-11.2c-.6-.9-.8-2.5-.5-3.5l5.5-16.6c.3-1 .1-2.5-.6-3.4l-3.1-4c-.7-.8-1.1-2.4-.9-3.5l.5-2.8c.2-1.1-.2-2.7-.7-3.6l-4.9-7.4c-.6-.9-1.9-1.6-3-1.5l-10.9.8c-1.1.1-1.4-.5-.7-1.4l2.7-3.3c.7-.8 1.4-2.4 1.6-3.4l.8-4.3c.2-1.1 1.1-2.3 2.1-2.8l10.8-5.1c1-.5 2.4-.3 3.3.4l7.7 6.1c.8.7 2.3.9 3.3.4z"/><path id="XMLID_1_" d="m225 168.1-4-4.1-11.5 4.1-5.9-4.1-8.5 1.8-7-2.2-2.6 2.2-13 2.2-7 14.4-7.4 10 15.9 16.3-14.2 18.8c29.5-9.4 53.5-31 65.2-59.4z"/></g></g></svg>