<svg id="Layer_2" viewBox="0 0 64 64" xmlns="http://www.w3.org/2000/svg" data-name="Layer 2"><path d="m32 48a16 16 0 1 0 -16-16 16.0183 16.0183 0 0 0 16 16zm0-30a14 14 0 1 1 -14 14 14.0158 14.0158 0 0 1 14-14z"/><path d="m32 12.6431a1 1 0 0 0 1-1v-9.6431a1 1 0 0 0 -2 0v9.6431a1 1 0 0 0 1 1z"/><path d="m20.9551 14.87a1 1 0 1 0 1.7324-1l-2.7783-4.8124a1 1 0 1 0 -1.7324 1z"/><path d="m5.519 17.8662 8.351 4.8213a1 1 0 1 0 1-1.7324l-8.351-4.8213a1 1 0 1 0 -1 1.7324z"/><path d="m6.0859 31a1 1 0 0 0 0 2h5.5572a1 1 0 1 0 0-2z"/><path d="m6.519 47.8662 8.351-4.8213a1 1 0 1 0 -1-1.7324l-8.351 4.8213a1 1 0 0 0 1 1.7324z"/><path d="m20.9551 49.13-2.7783 4.8125a1 1 0 1 0 1.7324 1l2.7783-4.8125a1 1 0 0 0 -1.7324-1z"/><path d="m31 52.3569v9.6431a1 1 0 0 0 2 0v-9.6431a1 1 0 1 0 -2 0z"/><path d="m41.6787 48.7637a1 1 0 0 0 -.3662 1.3662l2.7783 4.8125a1 1 0 0 0 1.7324-1l-2.7783-4.8124a1 1 0 0 0 -1.3662-.3663z"/><path d="m49.13 43.0449 8.3511 4.8213a1 1 0 1 0 1-1.7324l-8.3511-4.8213a1 1 0 0 0 -1 1.7324z"/><path d="m57.9141 31h-5.5572a1 1 0 1 0 0 2h5.5572a1 1 0 0 0 0-2z"/><path d="m50.13 22.6875 8.3511-4.8213a1 1 0 1 0 -1-1.7324l-8.3511 4.8213a1 1 0 0 0 1 1.7324z"/><path d="m41.6787 15.2363a1.0009 1.0009 0 0 0 1.3662-.3662l2.7783-4.8125a1 1 0 1 0 -1.7324-1l-2.7783 4.8124a1 1 0 0 0 .3662 1.3663z"/></svg>