<svg id="Layer_1" enable-background="new 0 0 512 512" height="512" viewBox="0 0 512 512" width="512" xmlns="http://www.w3.org/2000/svg"><path d="m512 44.999c0-8.284-6.716-15-15-15s-15 6.716-15 15v35.403c-.334-.23-.668-.46-1.004-.692-12.722-8.77-27.14-18.709-44.246-18.709-15.673 0-28.203 9.616-39.258 18.101-7.623 5.851-15.504 11.899-20.992 11.899s-13.37-6.049-20.993-11.899c-11.055-8.484-23.584-18.101-39.257-18.101s-28.203 9.616-39.258 18.101c-7.622 5.85-15.504 11.899-20.992 11.899s-13.37-6.049-20.993-11.899c-11.055-8.484-23.584-18.101-39.257-18.101s-28.203 9.616-39.258 18.101c-7.623 5.851-15.504 11.899-20.992 11.899s-13.37-6.049-20.993-11.899c-11.055-8.484-23.584-18.101-39.257-18.101-17.105 0-31.524 9.939-44.246 18.709-.336.232-.67.461-1.004.692v-35.403c0-8.284-6.716-15-15-15s-15 6.716-15 15v422.002c0 8.284 6.716 15 15 15h482c8.284 0 15-6.716 15-15zm-482 407.002v-336.207c6.3-3.305 12.231-7.387 18.031-11.384 9.563-6.593 19.452-13.409 27.219-13.409 5.488 0 13.37 6.049 20.993 11.899 11.055 8.484 23.584 18.101 39.257 18.101s28.203-9.616 39.257-18.101c7.623-5.851 15.505-11.899 20.993-11.899s13.37 6.049 20.993 11.899c11.055 8.484 23.584 18.101 39.257 18.101s28.203-9.616 39.257-18.101c7.623-5.851 15.505-11.899 20.993-11.899s13.37 6.049 20.992 11.899c11.055 8.484 23.584 18.101 39.258 18.101 15.673 0 28.203-9.616 39.257-18.101 7.623-5.851 15.505-11.899 20.993-11.899 7.768 0 17.656 6.816 27.22 13.409 5.799 3.997 11.731 8.079 18.03 11.384v336.207z"/><path d="m282.394 214.107c2.929 2.929 6.768 4.394 10.606 4.394s7.678-1.465 10.606-4.394c5.858-5.857 5.858-15.355 0-21.213 0 0-36.498-36.498-36.5-36.5-3.876-3.876-10.102-5.335-15.359-3.765-2.383.712-4.597 2.006-6.357 3.767l-36.497 36.497c-5.858 5.857-5.858 15.355 0 21.213 2.929 2.929 6.768 4.394 10.606 4.394s7.678-1.465 10.606-4.394l10.895-10.892v174.574l-10.894-10.894c-5.857-5.857-15.355-5.857-21.213 0s-5.858 15.355 0 21.213c0 0 36.497 36.497 36.497 36.497 2.097 2.095 4.833 3.526 7.736 4.103 1.114.222 2.239.293 3.373.293 3.839 0 7.678-1.465 10.606-4.394l36.5-36.5c5.858-5.857 5.858-15.355 0-21.213-5.857-5.857-15.355-5.857-21.213 0l-11.392 11.395v-175.574z"/></svg>