<svg enable-background="new 0 0 512 512" height="512" viewBox="0 0 512 512" width="512" xmlns="http://www.w3.org/2000/svg"><g id="_x30_9_Temperature"><g><path d="m346.674 325.764v-284.129c0-22.798-18.528-41.407-41.407-41.407-22.878 0-41.407 18.609-41.407 41.407v284.129c-38.587 18.126-61.224 59.613-55.263 102.389 6.123 43.502 42.212 78.384 85.956 83.056 3.625.403 7.25.563 10.795.563 24.248 0 47.046-8.7 65.171-25.053 20.543-18.448 32.304-44.871 32.304-72.502 0-38.104-21.911-72.422-56.149-88.453zm15.79 152.013c-18.286 16.434-41.89 24.006-66.621 21.428-38.265-4.108-69.925-34.64-75.242-72.744-5.397-38.668 15.87-76.208 51.638-91.192 2.175-.967 3.705-3.142 3.705-5.559v-288.075c0-16.192 13.131-29.323 29.323-29.323s29.323 13.131 29.323 29.323v288.077c0 2.417 1.45 4.592 3.705 5.559 31.901 13.372 52.444 44.307 52.444 78.947.001 24.166-10.311 47.367-28.275 63.559z"/><path d="m358.597 414.217c0 29.404-23.926 53.249-53.41 53.249-29.323 0-53.249-23.845-53.249-53.249 0-27.39 20.704-50.026 47.207-53.007v-145.81c0-3.383 2.739-6.042 6.042-6.042s6.042 2.659 6.042 6.042v145.81c26.584 2.98 47.368 25.617 47.368 53.007z"/><path d="m381.272 64.737h44.079c3.336 0 6.042-2.706 6.042-6.042s-2.706-6.042-6.042-6.042h-44.079c-3.336 0-6.042 2.706-6.042 6.042s2.706 6.042 6.042 6.042z"/><path d="m381.272 100.453h22.043c3.336 0 6.042-2.706 6.042-6.042s-2.706-6.042-6.042-6.042h-22.043c-3.336 0-6.042 2.706-6.042 6.042s2.706 6.042 6.042 6.042z"/><path d="m381.272 136.162h44.079c3.336 0 6.042-2.706 6.042-6.042s-2.706-6.042-6.042-6.042h-44.079c-3.336 0-6.042 2.706-6.042 6.042s2.706 6.042 6.042 6.042z"/><path d="m381.272 171.878h22.043c3.336 0 6.042-2.706 6.042-6.042s-2.706-6.042-6.042-6.042h-22.043c-3.336 0-6.042 2.706-6.042 6.042s2.706 6.042 6.042 6.042z"/><path d="m381.272 207.586h44.079c3.336 0 6.042-2.706 6.042-6.042s-2.706-6.042-6.042-6.042h-44.079c-3.336 0-6.042 2.706-6.042 6.042s2.706 6.042 6.042 6.042z"/><path d="m381.272 243.303h22.043c3.336 0 6.042-2.706 6.042-6.042s-2.706-6.042-6.042-6.042h-22.043c-3.336 0-6.042 2.706-6.042 6.042s2.706 6.042 6.042 6.042z"/><path d="m381.272 279.011h44.079c3.336 0 6.042-2.706 6.042-6.042s-2.706-6.042-6.042-6.042h-44.079c-3.336 0-6.042 2.706-6.042 6.042s2.706 6.042 6.042 6.042z"/><path d="m187.975 221.521c3.464 17.642 5.075 37.943 3.303 61.385-.241 3.142-2.819 5.559-5.961 5.559h-.483c-3.303-.242-5.8-3.142-5.559-6.445 1.45-19.092.403-36.01-2.014-50.994-15.386 12.164-35.687 13.856-54.86 2.175-26.745-16.595-25.134-53.491-24.328-71.294.886-19.817-5.559-38.749-13.695-55.666-2.981-6.042-5.075-10.392-2.82-15.79 1.37-3.061 3.948-5.397 7.089-6.445 40.118-12.97 101.906 14.742 132.277 47.69 43.5 47.371 7.33 95.948-32.949 89.825z"/></g></g></svg>