<?xml version="1.0" encoding="iso-8859-1"?>
<!-- Generator: Adobe Illustrator 19.0.0, SVG Export Plug-In . SVG Version: 6.00 Build 0)  -->
<svg version="1.1" id="Layer_1" xmlns="http://www.w3.org/2000/svg" xmlns:xlink="http://www.w3.org/1999/xlink" x="0px" y="0px"
	 viewBox="0 0 512.001 512.001" style="enable-background:new 0 0 512.001 512.001;" xml:space="preserve">
<g>
	<g>
		<path d="M504.397,356.45c-18.479,0-27.883,8.599-36.183,16.185c-7.457,6.818-13.348,12.203-25.92,12.203
			s-18.463-5.385-25.92-12.203c-8.299-7.587-17.704-16.185-36.183-16.185c-9.042,0-15.903,2.066-21.533,5.058
			c-1.373-37.436-23.101-71.224-56.523-88.041v-24.124h79.588c4.2,0,7.604-3.405,7.604-7.604v-42.582
			c0-4.199-3.404-7.604-7.604-7.604h-79.588v-22.457h79.588c4.2,0,7.604-3.405,7.604-7.604V118.91c0-4.199-3.404-7.604-7.604-7.604
			h-79.588V88.849h79.588c4.2,0,7.604-3.405,7.604-7.604V38.663c0-4.199-3.404-7.604-7.604-7.604h-79.588V10.002
			c0-4.199-3.404-7.604-7.604-7.604h-77.053c-4.199,0-7.604,3.405-7.604,7.604v100.866c0,4.199,3.405,7.604,7.604,7.604
			c4.199,0,7.604-3.405,7.604-7.604V17.606h61.846v21.058c0,4.199,3.404,7.604,7.604,7.604h79.588v27.374h-79.588
			c-4.2,0-7.604,3.405-7.604,7.604v37.665c0,4.199,3.404,7.604,7.604,7.604h79.588v27.374h-79.588c-4.2,0-7.604,3.405-7.604,7.604
			v37.665c0,4.199,3.404,7.604,7.604,7.604h79.588v27.374h-79.588c-4.2,0-7.604,3.405-7.604,7.604v36.54
			c0,3.006,1.771,5.731,4.52,6.95c31.633,14.037,52.074,45.457,52.074,80.049c0,2.735-0.127,5.465-0.374,8.144
			c-7.06,6.438-12.974,11.415-25.056,11.415c-12.572,0-18.462-5.385-25.918-12.202c-8.298-7.587-17.703-16.186-36.18-16.186
			s-27.881,8.6-36.18,16.186c-7.456,6.817-13.345,12.202-25.916,12.202c-12.076,0-17.99-4.972-25.045-11.406
			c-0.248-2.68-0.374-5.411-0.374-8.152c0-34.593,20.445-66.014,52.083-80.048c2.749-1.22,4.521-3.944,4.521-6.951V136.215
			c0-4.199-3.405-7.604-7.604-7.604s-7.604,3.405-7.604,7.604v137.253c-33.429,16.815-55.161,50.606-56.533,88.046
			c-5.632-2.995-12.495-5.062-21.542-5.062c-18.477,0-27.881,8.599-36.18,16.186c-7.456,6.817-13.346,12.202-25.918,12.202
			c-12.571,0-18.46-5.385-25.916-12.202c-8.299-7.588-17.704-16.187-36.181-16.187c-4.199,0-7.604,3.405-7.604,7.604
			s3.405,7.604,7.604,7.604c12.572,0,18.46,5.385,25.917,12.202c8.298,7.587,17.703,16.186,36.179,16.186
			c18.477,0,27.882-8.599,36.181-16.186c7.456-6.817,13.345-12.202,25.917-12.202c12.572,0,18.461,5.385,25.918,12.202
			c8.298,7.587,17.703,16.186,36.18,16.186c18.476,0,27.881-8.599,36.179-16.186c7.456-6.817,13.345-12.202,25.917-12.202
			s18.461,5.385,25.918,12.202c8.298,7.587,17.703,16.186,36.181,16.186c18.478,0,27.882-8.599,36.181-16.185
			c7.456-6.818,13.346-12.203,25.919-12.203c12.573,0,18.463,5.385,25.92,12.203c8.299,7.587,17.705,16.185,36.183,16.185
			c18.479,0,27.883-8.599,36.183-16.185c7.457-6.818,13.347-12.203,25.92-12.203c4.2,0,7.604-3.405,7.604-7.604
			S508.598,356.45,504.397,356.45z"/>
	</g>
</g>
<g>
	<g>
		<path d="M504.396,411.229c-18.479,0-27.883,8.599-36.183,16.186c-7.457,6.817-13.347,12.202-25.92,12.202
			c-12.573,0-18.463-5.385-25.92-12.202c-8.299-7.587-17.704-16.186-36.183-16.186c-18.479,0-27.884,8.6-36.183,16.187
			c-0.571,0.523-1.143,1.045-1.717,1.564c-3.115,2.817-3.357,7.625-0.54,10.74c2.817,3.116,7.625,3.357,10.741,0.541
			c0.595-0.538,1.187-1.08,1.78-1.622c7.456-6.818,13.345-12.203,25.919-12.203c12.573,0,18.463,5.385,25.92,12.202
			c8.299,7.587,17.704,16.186,36.183,16.186s27.883-8.599,36.183-16.186c7.457-6.817,13.347-12.202,25.92-12.202
			c4.2,0,7.604-3.405,7.604-7.604C512,414.633,508.596,411.229,504.396,411.229z"/>
	</g>
</g>
<g>
	<g>
		<path d="M318.091,439.617c-12.572,0-18.462-5.385-25.918-12.202c-8.298-7.587-17.703-16.186-36.18-16.186
			c-18.477,0-27.881,8.6-36.18,16.186c-7.456,6.817-13.345,12.202-25.916,12.202c-12.572,0-18.461-5.385-25.917-12.202
			c-8.298-7.587-17.703-16.186-36.181-16.186c-18.478,0-27.881,8.599-36.18,16.186c-7.456,6.817-13.346,12.202-25.918,12.202
			c-12.571,0-18.46-5.385-25.916-12.202c-8.299-7.587-17.704-16.186-36.181-16.186c-4.199,0-7.604,3.405-7.604,7.604
			s3.405,7.604,7.604,7.604c12.572,0,18.46,5.385,25.917,12.202c8.298,7.587,17.703,16.186,36.179,16.186
			c18.477,0,27.882-8.599,36.181-16.186c7.456-6.817,13.345-12.202,25.917-12.202c12.572,0,18.461,5.385,25.917,12.202
			c8.298,7.587,17.703,16.186,36.181,16.186c18.476,0,27.881-8.599,36.179-16.186c7.456-6.817,13.345-12.202,25.917-12.202
			c12.573,0,18.461,5.385,25.918,12.202c8.298,7.587,17.703,16.186,36.181,16.186c4.2,0,7.604-3.405,7.604-7.604
			S322.291,439.617,318.091,439.617z"/>
	</g>
</g>
<g>
	<g>
		<path d="M504.396,466.007c-18.479,0-27.883,8.599-36.183,16.185c-7.457,6.818-13.347,12.203-25.92,12.203
			c-12.573,0-18.463-5.385-25.92-12.203c-8.299-7.587-17.704-16.185-36.183-16.185c-18.478,0-27.883,8.599-36.182,16.186
			c-7.456,6.817-13.346,12.202-25.918,12.202c-12.572,0-18.462-5.385-25.918-12.202c-8.298-7.587-17.703-16.186-36.18-16.186
			c-18.477,0-27.881,8.6-36.18,16.186c-7.456,6.817-13.345,12.202-25.916,12.202c-12.572,0-18.461-5.385-25.917-12.202
			c-8.298-7.587-17.703-16.186-36.181-16.186c-18.478,0-27.881,8.599-36.18,16.186c-7.456,6.817-13.346,12.202-25.918,12.202
			c-12.571,0-18.46-5.385-25.916-12.202c-8.298-7.587-17.703-16.186-36.18-16.186c-4.199,0-7.604,3.405-7.604,7.604
			s3.405,7.604,7.604,7.604c12.572,0,18.46,5.385,25.917,12.202c8.298,7.587,17.703,16.186,36.179,16.186
			c18.477,0,27.882-8.599,36.181-16.186c7.456-6.817,13.345-12.202,25.917-12.202c12.572,0,18.461,5.385,25.918,12.202
			c8.298,7.587,17.703,16.186,36.18,16.186c18.476,0,27.881-8.599,36.179-16.186c7.456-6.817,13.345-12.202,25.917-12.202
			s18.461,5.385,25.918,12.202c8.298,7.587,17.703,16.186,36.181,16.186c18.478,0,27.882-8.599,36.181-16.185
			c7.456-6.818,13.346-12.203,25.919-12.203c12.573,0,18.463,5.385,25.92,12.203c8.299,7.587,17.705,16.185,36.183,16.185
			c18.479,0,27.883-8.599,36.183-16.185c7.457-6.818,13.347-12.203,25.92-12.203c4.2,0,7.604-3.405,7.604-7.604
			S508.596,466.007,504.396,466.007z"/>
	</g>
</g>
<g>
</g>
<g>
</g>
<g>
</g>
<g>
</g>
<g>
</g>
<g>
</g>
<g>
</g>
<g>
</g>
<g>
</g>
<g>
</g>
<g>
</g>
<g>
</g>
<g>
</g>
<g>
</g>
<g>
</g>
</svg>
