<svg id="Layer_1" height="512" viewBox="0 0 60 60" width="512" xmlns="http://www.w3.org/2000/svg"><path d="m53 34.83c-1.52 0-2.32.69-2.95 1.24-.53.46-.87.76-1.66.76-.78 0-1.12-.3-1.64-.75-.64-.55-1.44-1.25-2.97-1.25-1.52 0-2.32.69-2.96 1.25-.52.46-.87.75-1.64.75s-1.12-.3-1.64-.75c-.52-.46-1.16-1-2.21-1.18l1.5-2.16c.21-.31.24-.7.06-1.03-.17-.33-.51-.54-.89-.54h-3v-21c0-.55-.45-1-1-1h-4c-.55 0-1 .45-1 1v21h-3c-.37 0-.71.21-.89.54-.17.33-.15.73.06 1.03l1.49 2.15c-1.07.18-1.71.72-2.24 1.18-.52.46-.87.75-1.64.75-.78 0-1.12-.3-1.64-.75-.64-.55-1.43-1.25-2.96-1.25-1.52 0-2.32.69-2.96 1.25-.52.46-.87.75-1.64.75s-1.11-.3-1.63-.75c-.63-.55-1.42-1.24-2.95-1.24-.55 0-1 .45-1 1s.45 1 1 1c.78 0 1.12.3 1.64.76.64.55 1.43 1.24 2.95 1.24s2.32-.69 2.96-1.25c.52-.46.87-.75 1.64-.75.78 0 1.12.3 1.64.75.64.55 1.43 1.25 2.96 1.25 1.52 0 2.32-.69 2.96-1.25.52-.46.87-.75 1.64-.75.27 0 .5.05.71.12l3.08 4.45c.19.27.49.43.82.43s.64-.16.82-.43l3.08-4.45c.21-.07.42-.12.67-.12.78 0 1.12.3 1.64.75.64.55 1.43 1.25 2.96 1.25s2.32-.69 2.96-1.25c.52-.46.87-.75 1.64-.75.78 0 1.13.3 1.66.76.64.55 1.43 1.24 2.95 1.24 1.53 0 2.33-.69 2.97-1.25.52-.45.87-.75 1.64-.75.55 0 1-.45 1-1s-.44-1-.99-1zm-23 4.24-2.49-3.59-1.6-2.31h2.09c.55 0 1-.45 1-1v-21h2v21c0 .55.45 1 1 1h2.09z"/><path d="m53 40.83c-1.53 0-2.32.69-2.96 1.25-.52.45-.87.75-1.65.75s-1.13-.3-1.65-.75c-.64-.55-1.43-1.25-2.96-1.25-1.52 0-2.32.69-2.96 1.25-.52.46-.87.75-1.64.75-.78 0-1.12-.3-1.64-.75-.64-.55-1.43-1.25-2.96-1.25s-2.32.69-2.96 1.25c-.52.46-.87.75-1.64.75s-1.12-.3-1.64-.75c-.64-.56-1.43-1.25-2.95-1.25s-2.32.69-2.96 1.25c-.52.46-.87.75-1.64.75-.78 0-1.12-.3-1.64-.75-.64-.55-1.43-1.25-2.96-1.25s-2.32.69-2.96 1.25c-.52.45-.87.75-1.64.75s-1.12-.3-1.64-.75c-.63-.56-1.43-1.25-2.95-1.25-.55 0-1 .45-1 1s.45 1 1 1c.77 0 1.12.3 1.64.75.64.56 1.43 1.25 2.95 1.25s2.32-.69 2.95-1.25c.52-.46.87-.75 1.64-.75s1.12.3 1.64.75c.64.55 1.43 1.25 2.96 1.25 1.52 0 2.32-.69 2.96-1.25.52-.46.87-.75 1.64-.75s1.12.3 1.64.75c.64.56 1.43 1.25 2.95 1.25s2.32-.69 2.96-1.25c.52-.46.87-.75 1.64-.75s1.12.3 1.64.75c.64.55 1.43 1.25 2.96 1.25s2.32-.69 2.96-1.25c.52-.46.87-.75 1.64-.75.78 0 1.13.3 1.65.75.64.55 1.43 1.25 2.96 1.25s2.32-.69 2.96-1.25c.52-.45.87-.75 1.65-.75.55 0 1-.45 1-1s-.44-1-.99-1z"/><path d="m53 46.83c-1.53 0-2.32.69-2.96 1.25-.52.45-.87.75-1.65.75s-1.13-.3-1.65-.75c-.64-.55-1.43-1.25-2.96-1.25-1.52 0-2.32.69-2.96 1.25-.52.46-.87.75-1.64.75-.78 0-1.12-.3-1.64-.75-.64-.55-1.43-1.25-2.96-1.25s-2.32.69-2.96 1.25c-.52.46-.87.75-1.64.75s-1.12-.3-1.64-.75c-.64-.56-1.43-1.25-2.95-1.25s-2.32.69-2.96 1.25c-.52.46-.87.75-1.64.75-.78 0-1.12-.3-1.64-.75-.64-.55-1.43-1.25-2.96-1.25s-2.32.69-2.96 1.25c-.52.45-.87.75-1.64.75s-1.12-.3-1.64-.75c-.63-.56-1.43-1.25-2.95-1.25-.55 0-1 .45-1 1s.45 1 1 1c.77 0 1.12.3 1.64.75.64.56 1.43 1.25 2.95 1.25s2.32-.69 2.95-1.25c.52-.46.87-.75 1.64-.75s1.12.3 1.64.75c.64.55 1.43 1.25 2.96 1.25 1.52 0 2.32-.69 2.96-1.25.52-.46.87-.75 1.64-.75s1.12.3 1.64.75c.64.56 1.43 1.25 2.95 1.25s2.32-.69 2.96-1.25c.52-.46.87-.75 1.64-.75s1.12.3 1.64.75c.64.55 1.43 1.25 2.96 1.25s2.32-.69 2.96-1.25c.52-.46.87-.75 1.64-.75.78 0 1.13.3 1.65.75.64.55 1.43 1.25 2.96 1.25s2.32-.69 2.96-1.25c.52-.45.87-.75 1.65-.75.55 0 1-.45 1-1s-.44-1-.99-1z"/></svg>