<svg id="Update" viewBox="0 0 64 64" xmlns="http://www.w3.org/2000/svg"><path d="m59.59 20.21c-4.73-11.06-15.56-18.21-27.59-18.21-6.54 0-12.82 2.12-18 6v-4c0-1.1-.9-2-2-2s-2 .9-2 2v8c0 .92.62 1.72 1.51 1.94l8 2c.16.04.33.06.49.06.9 0 1.71-.61 1.94-1.51.27-1.07-.38-2.16-1.46-2.43l-3.92-.98c4.46-3.29 9.84-5.08 15.43-5.08 10.43 0 19.81 6.2 23.91 15.79 1.39 3.23 2.09 6.66 2.09 10.21s-.7 6.98-2.09 10.21c-.44 1.02.03 2.19 1.05 2.63.26.11.53.16.79.16.78 0 1.51-.45 1.84-1.21 1.6-3.73 2.41-7.7 2.41-11.79s-.81-8.06-2.41-11.79z"/><path d="m52.49 50.06-8-2c-1.07-.27-2.16.38-2.43 1.46-.27 1.07.38 2.16 1.46 2.43l3.92.98c-4.46 3.29-9.84 5.08-15.43 5.08-10.43 0-19.81-6.2-23.91-15.79-1.39-3.23-2.09-6.66-2.09-10.21s.7-6.98 2.09-10.21c.44-1.02-.03-2.19-1.05-2.63-1.02-.43-2.19.03-2.63 1.05-1.6 3.73-2.41 7.7-2.41 11.79s.81 8.06 2.41 11.79c4.73 11.06 15.56 18.21 27.59 18.21 6.54 0 12.82-2.12 18-6v4c0 1.1.9 2 2 2s2-.9 2-2v-8c0-.92-.62-1.72-1.51-1.94z"/><path d="m28 42c.51 0 1.02-.2 1.41-.59l17-17c.78-.78.78-2.05 0-2.83s-2.05-.78-2.83 0l-15.59 15.59-6.59-6.59c-.78-.78-2.05-.78-2.83 0s-.78 2.05 0 2.83l8 8c.39.39.9.59 1.41.59z"/></svg>