<svg id="Layer_1" enable-background="new 0 0 512 512" height="512" viewBox="0 0 512 512" width="512" xmlns="http://www.w3.org/2000/svg"><g id="XMLID_1_"><g id="XMLID_3849_"><path id="XMLID_1459_" d="m363 169.6s-13.2-6.6-6.5-13.4c13.4-13.4 65.7 23.9 138.5-2.6l12.4 43.9c-38.8 21.7-103.9-3.2-132.6-16.1" fill="#275e87"/><path id="XMLID_1510_" d="m507.3 197.5c-19.7 11-46.1 10-71.1 4.7 0 0-36.5-14.9-35.1-23 1.4-8 37.1-15.2 37.9-16.2 16.8 0 35.5-2.2 55.9-9.6z" fill="#ffc96f"/><path id="XMLID_1460_" d="m291.6 122.8s-20.8-2.6-8.9-14.5 85.8 1.7 128.2-58.3l39.4 40c-19.6 41.8-143.8 33.5-143.8 33.5" fill="#275e87"/><path id="XMLID_1544_" d="m450.3 90c-7.8 16.7-32.5 25.2-59.2 29.6-1.4.2-2.7.4-4.1.4-16.7 2-46.4-.8-48.5-9.1-2-7.6 21.5-20.6 29-24.6 15.6-7.4 30.9-18.7 43.4-36.4z" fill="#ffc96f"/><path id="XMLID_1928_" d="m280 248.2 19.2-7.1 10.5-18.3 53.2-53.2s14.2-1.3 11.8 11.8c0 0-42.5 62.6-58.8 78.4-16.4 15.8-71.3 41-81.8 51.5.1 0 5.5-50.1 45.9-63.1z" fill="#275e87"/><path id="XMLID_1466_" d="m31.6 447 14.5 15 16.7-23.7 15.1-8.7s31.6 10.3 40.7 7.9c9.1-2.3 50.5-31.3 61.4-46.1s34.3-53.3 54.2-79.9c20-26.6 53.3-70.8 61.3-90.4s11-97.7 11-97.7-6.1-7-15-.8l-22.3 68.4 1 18.1-41.9 53.2s-27.9 1.1-35.3 6.1c-7.3 5-11 15.4-22.5 26.9l-86.3 84.6-12.5 12.5-20.4 6.1c-11.4-11.4-25.8-8-34.4.6s-12.8 20.7-3.5 30z" fill="#3279af"/><path id="XMLID_2079_" d="m134.7 330.5-19.9 19.5 53.5 53.5c5-4.4 9.2-8.6 11.7-12 1.8-2.5 4-5.6 6.5-9.3z" fill="#275e87"/><path id="XMLID_1610_" d="m36.8 437.7c6.6 6.2 4.7 19.6 4.7 19.6l-28.1-28.3 9-5.7z" fill="#ffc96f"/><path id="XMLID_1469_" d="m5.4 433.8 22.3 22.4 9.1-18.5-14.4-14.4z" fill="#ffb234"/><path id="XMLID_1467_" d="m173.3 298.4-74.3 74.3c-9.1 9.1-23.8 9.1-32.9 0-9.1-9.1-9.1-23.8 0-32.9l74.3-74.3z" fill="#9cd3fc"/><path id="XMLID_1693_" d="m99.4 372.7 74.3-74.3-16.3-16.3-90.9 90.6c9.1 9.1 23.8 9.1 32.9 0z" fill="#69bdfb"/><path id="XMLID_1465_" d="m96.7 412.3c9.7 9.7 21 13.2 41.7-7.5l35.5-27.7 68.7 11.7 5.1-11.3-75.4-30.1-51.9 25c.1 0-37.5 26.2-23.7 39.9z" fill="#4893cc"/><path id="XMLID_1464_" d="m242.7 388.8 28.4 12 16.9-16.9-2.5-18.6-11.3 11.3-15.3-4.8-11.2 5.7z" fill="#ffc96f"/><g id="XMLID_1463_"><path id="XMLID_1730_" d="m33.9 434.7-7.1-7.1c18.3-18.3 19.5-29.5 19.5-29.7l5 .4 5 .3c-.1 1.5-1.4 15.1-22.4 36.1z" fill="#275e87"/></g><path id="XMLID_1462_" d="m97.5 304.1h27.9v46.5h-27.9z" fill="#ffc96f" transform="matrix(.707 -.707 .707 .707 -198.797 174.707)"/><path id="XMLID_1785_" d="m118.4 353.6 19.7-19.7-16.3-16.4-19.8 19.7z" fill="#ffb234"/></g><g id="XMLID_3430_"><g id="XMLID_720_"><path id="XMLID_2422_" d="m27.7 461.2c-1.3 0-2.6-.5-3.5-1.5l-22.4-22.3c-1.1-1.1-1.6-2.6-1.4-4.1s1-2.9 2.3-3.7l17.1-10.6c2-1.2 4.5-.9 6.2.7l14.4 14.4c1.5 1.5 1.9 3.8 1 5.7l-9.1 18.5c-.7 1.4-2.1 2.5-3.7 2.7-.4.1-.6.2-.9.2zm-14.3-26.4 12.9 12.9 4.4-9-9-9z" fill="#213762"/></g><g id="XMLID_706_"><path id="XMLID_2421_" d="m174.1 298.9-7.1-7.1c5.2-5.2 8.8-10.3 11.9-14.8 3.6-5.1 6.7-9.6 11.2-12.7 7.2-5 27.7-6.5 35.6-6.9l27.7-35.2 7.9 6.2-29.1 36.9c-.9 1.1-2.3 1.8-3.7 1.9-11 .4-28.4 2.4-32.6 5.3-3 2.1-5.5 5.6-8.7 10.2s-7.2 10.3-13.1 16.2z" fill="#213762"/></g><g id="XMLID_8_"><path id="XMLID_2420_" d="m205.8 362-8.4-5.5c10.7-16.4 22.1-33.7 32.8-48l1.2-1.6c19.4-25.8 51.8-69.1 59.4-87.7 6.1-14.9 9.6-70.3 10.6-93.6-1.2-.7-3.2-1.1-5.7.3l-21.5 65.7 1 17.2-10 .6-1-18.1c0-.6 0-1.2.2-1.8l22.3-68.3c.3-1 1-1.9 1.9-2.5 10-7 18.6-2 21.7 1.6.8 1 1.3 2.2 1.2 3.5-.1 3.2-3.2 79.2-11.4 99.4-8.1 19.8-39.7 62-60.7 90l-1.2 1.6c-10.5 13.9-22.3 31.6-32.4 47.2z" fill="#213762"/></g><g id="XMLID_1931_"><path id="XMLID_2419_" d="m46.1 467c-1.4 0-2.7-.5-3.6-1.5l-14.5-15 7.2-6.9 10.3 10.7 13.2-18.7c.4-.6 1-1.1 1.6-1.5l15.1-8.7c1.2-.7 2.7-.9 4-.4 12.6 4.1 32.6 9.2 37.9 7.9 7.4-1.9 48.1-30.1 58.7-44.2 2-2.7 4.6-6.5 8.2-11.8l8.3 5.5c-3.6 5.5-6.3 9.3-8.5 12.2-11.5 15.5-54 45.3-64.2 48-9 2.3-32.9-4.7-41.4-7.4l-12.2 7-16 22.8c-.9 1.2-2.2 2-3.7 2.1-.1-.1-.3-.1-.4-.1z" fill="#213762"/></g><g id="XMLID_3_"><path id="XMLID_2415_" d="m82.6 384.5c-7.2 0-14.5-2.8-20-8.3-11-11-11-28.9 0-39.9l74.3-74.3c.9-.9 2.2-1.5 3.5-1.5s2.6.5 3.5 1.5l32.9 32.9c2 2 2 5.1 0 7.1l-74.3 74.3c-5.5 5.4-12.7 8.2-19.9 8.2zm57.8-111.9-70.7 70.7c-7.1 7.1-7.1 18.7 0 25.8 3.4 3.4 8 5.3 12.9 5.3s9.5-1.9 12.9-5.3l70.7-70.7z" fill="#213762"/></g><g id="XMLID_9_"><path id="XMLID_2414_" d="m9.9 432.6c-10-10-8.6-24.9 3.5-37 5.4-5.4 12.2-8.7 19.3-9.2 7.2-.6 14.1 1.7 20 6.6l16.5-4.9 11.6-11.6 7.1 7.1-12.5 12.5c-.6.6-1.3 1-2.1 1.3l-20.4 6.1c-1.8.5-3.7 0-5-1.3-4.2-4.2-9.1-6.2-14.3-5.8-4.6.4-9.4 2.7-13 6.3-3.1 3.1-12.5 13.9-3.5 22.9z" fill="#213762"/></g><g id="XMLID_10_"><path id="XMLID_2411_" d="m112.1 425c-8.7 0-15-5.2-19-9.2-3.3-3.3-4.8-7.5-4.4-12.1 1.4-15.8 26.1-33.4 28.9-35.4.2-.2.4-.3.7-.4l51.9-25c1.3-.6 2.7-.7 4-.1l75.4 30.1c1.3.5 2.3 1.5 2.8 2.8s.5 2.7-.1 3.9l-5.1 11.3c-.9 2.1-3.2 3.3-5.4 2.9l-66.5-11.3-33.6 26.2c-10.5 10.4-19.6 15.8-27.9 16.4-.6-.1-1.1-.1-1.7-.1zm-11.9-16.2c4.7 4.7 8.5 6.5 12.8 6.2 5.8-.4 13.2-5 21.8-13.7.1-.1.3-.3.5-.4l35.5-27.7c1.1-.9 2.5-1.2 3.9-1l64.9 11.1 1.4-3-68.5-27.3-49.5 23.8c-9.1 6.4-23.6 19.5-24.3 27.8-.2 1.7.3 2.9 1.5 4.2z" fill="#213762"/></g><g id="XMLID_12_"><path id="XMLID_2389_" d="m271.1 405.8c-.7 0-1.3-.1-1.9-.4l-28.4-12c-1.2-.5-2.2-1.5-2.7-2.8s-.5-2.6.1-3.9l5.1-11.3c.5-1 1.3-1.9 2.3-2.4l11.1-5.7c1.2-.6 2.5-.7 3.8-.3l12.4 3.9 9.2-9.2c1.3-1.3 3.3-1.8 5.1-1.2s3.1 2.2 3.4 4.1l2.5 18.6c.2 1.5-.3 3.1-1.4 4.2l-17 17c-1.1.9-2.3 1.4-3.6 1.4zm-21.8-19.6 20.6 8.7 12.8-12.8-.8-6.1-4.2 4.2c-1.3 1.3-3.3 1.8-5 1.2l-13.4-4.2-7.7 4z" fill="#213762"/></g><g id="XMLID_13_"><path id="XMLID_2388_" d="m33.9 434.7-7.1-7.1c18.3-18.3 19.5-29.5 19.5-29.7l5 .4 5 .3c-.1 1.5-1.4 15.1-22.4 36.1z" fill="#213762"/></g><g id="XMLID_1935_"><path id="XMLID_2387_" d="m78.4 332.2h46.5v10h-46.5z" fill="#213762" transform="matrix(.707 .707 -.707 .707 268.194 26.896)"/></g><g id="XMLID_11_"><path id="XMLID_2386_" d="m115 319.5h26.6v10h-26.6z" fill="#213762" transform="matrix(.707 .707 -.707 .707 267.04 4.271)"/></g><g id="XMLID_18_"><path id="XMLID_2385_" d="m237.7 314.9-7.1-7.1c5.3-5.3 19.1-13 35.2-22 17.9-10 38.2-21.4 46.7-29.6 14.7-14.2 52.1-68.8 57.5-76.7.1-1.3 0-2.6-.7-3.4-.9-1-2.8-1.4-4.3-1.5l-51.3 51.3-10.2 17.7c-.6 1-1.5 1.8-2.6 2.2l-19.2 7.1-3.5-9.4 17.5-6.4 9.6-16.7c.2-.4.5-.7.8-1l53.2-53.2c.8-.8 1.9-1.3 3.1-1.4.9-.1 9.2-.7 14.2 4.8 2 2.2 4.2 6.3 3 12.9-.1.7-.4 1.3-.8 1.9-1.7 2.6-42.9 63.2-59.5 79.2-9.4 9.1-29.4 20.3-48.7 31.1-14 7.7-28.6 15.9-32.9 20.2z" fill="#213762"/></g><g id="XMLID_15_"><path id="XMLID_2384_" d="m331.4 129.1c-14.5 0-24.4-.6-25.2-.7l.7-10c32.5 2.2 118.3 1.2 137.3-27.6l-32.7-33.2c-30.8 39.3-75.7 45.4-102.9 49.1-9.8 1.3-20 2.7-22.4 5.1-1.7 1.7-2.1 2.6-2.2 3 .8 1.1 4.9 2.6 8.2 3l-1.3 9.9c-2.3-.3-13.8-2.1-16.4-9.8-1-2.9-1-7.6 4.6-13.2 4.8-4.8 14-6 28.1-7.9 28.4-3.9 71.3-9.7 99.6-49.8.9-1.2 2.2-2 3.7-2.1s2.9.4 4 1.5l39.4 40c1.5 1.5 1.9 3.7 1 5.6-8.9 19-37 30.9-83.3 35.3-14.8 1.4-28.9 1.8-40.2 1.8z" fill="#213762"/></g><g id="XMLID_16_"><path id="XMLID_2383_" d="m469.4 211.1c-34.4 0-72.6-14.3-96.6-25.1l4.1-9.1c25.4 11.4 87.1 35.4 124.6 18.1l-9.8-34.9c-44 14.5-80.3 6.7-104.7 1.5-12.7-2.7-23.7-5.1-26.9-1.9-.3.3-.4.5-.4.6.2 1.1 3.1 3.5 5.6 4.8l-4.5 8.9c-1.6-.8-9.9-5.3-11-12.2-.4-2.3-.1-5.8 3.3-9.2 7.1-7.1 19.2-4.5 36.1-.9 24.2 5.2 60.7 13 104.2-2.9 1.3-.5 2.8-.4 4 .2s2.2 1.8 2.5 3.1l12.4 43.9c.6 2.2-.4 4.6-2.4 5.7-11.9 6.8-25.9 9.4-40.5 9.4z" fill="#213762"/></g><g id="XMLID_17_"><path id="XMLID_2376_" d="m375.7 125.9c-17.1 0-39.3-3.1-42-13.5-1.6-6.3 3.6-13 16.8-21.7 8.2-5.4 16.6-9.7 17-9.8l4.5 8.9c-13.9 7-27.1 16.4-28.5 20.2 1.1 1.1 6.1 3.8 18.5 5.3 10.1 1.2 21.4 1.1 28.1-.3l2 9.8c-3.5.6-9.5 1.1-16.4 1.1z" fill="#213762"/></g><g id="XMLID_26_"><path id="XMLID_2374_" d="m434.4 206.8c-.4-.2-9.5-3.8-18.5-8.6-15-7.9-20.7-13.6-19.6-19.7 1-5.6 7.8-10.1 22.9-14.9 9.4-3 18.5-5.1 18.9-5.1l2.1 9.8c-15.2 3.3-30.2 8.7-33.7 11.9 3 3.8 17 11.6 31.6 17.5z" fill="#213762"/></g></g></g></svg>