<svg id="Capa_1" enable-background="new 0 0 512 512" height="512" viewBox="0 0 512 512" width="512" xmlns="http://www.w3.org/2000/svg"><g><g><g><g><path d="m365.5 504.5h-318c-22.091 0-40-17.909-40-40v-417c0-22.091 17.909-40 40-40h318c5.523 0 10 4.477 10 10v412.833l-10 24 10 24v16.167c0 5.523-4.477 10-10 10z" fill="#dd7f66"/><path d="m365.5 7.5h-40c5.523 0 10 4.477 10 10v477c0 5.523-4.477 10-10 10h40c5.523 0 10-4.477 10-10v-16.167l-10-29.333 10-18.667v-412.833c0-5.523-4.477-10-10-10z" fill="#d6694b"/><g><g><path d="m180.961 40.175c-1.351.276-2.281 1.487-2.254 2.866.119 6.115-4.132 11.635-10.339 12.904s-12.284-2.14-14.574-7.811c-.516-1.279-1.847-2.028-3.198-1.751l-14.586 2.982c-1.351.276-2.281 1.487-2.254 2.866.119 6.115-4.132 11.635-10.339 12.904s-12.284-2.14-14.574-7.811c-.516-1.279-1.847-2.028-3.198-1.752l-14.586 2.982c-1.351.276-2.281 1.487-2.254 2.866.119 6.115-4.132 11.635-10.339 12.904s-12.284-2.14-14.574-7.811c-.516-1.279-1.847-2.028-3.198-1.752l-14.205 2.904c-1.53.313-2.517 1.807-2.205 3.338l2.904 14.206c.276 1.351 1.487 2.281 2.866 2.254 6.115-.119 11.635 4.132 12.904 10.339s-2.14 12.284-7.811 14.574c-1.279.516-2.028 1.847-1.752 3.198l2.982 14.586c.276 1.351 1.487 2.281 2.866 2.254 6.115-.119 11.635 4.132 12.904 10.339s-2.14 12.284-7.811 14.574c-1.279.516-2.028 1.847-1.752 3.198l2.982 14.586c.276 1.351 1.487 2.281 2.866 2.254 6.115-.119 11.635 4.132 12.904 10.339s-2.14 12.284-7.811 14.574c-1.279.516-2.028 1.847-1.752 3.198l2.904 14.206c.313 1.53 1.807 2.517 3.338 2.205l14.205-2.904c1.351-.276 2.281-1.487 2.254-2.866-.119-6.115 4.132-11.635 10.339-12.904s12.284 2.14 14.574 7.811c.516 1.279 1.847 2.028 3.198 1.751l14.586-2.982c1.351-.276 2.281-1.487 2.254-2.866-.119-6.115 4.132-11.635 10.339-12.904s12.284 2.14 14.574 7.811c.516 1.279 1.847 2.028 3.198 1.751l14.586-2.982c1.351-.276 2.281-1.487 2.254-2.866-.119-6.115 4.132-11.635 10.339-12.904s12.284 2.14 14.574 7.811c.516 1.279 1.847 2.028 3.198 1.751l14.205-2.904c1.53-.313 2.517-1.807 2.205-3.338l-2.904-14.206c-.276-1.351-1.487-2.281-2.866-2.254-6.115.119-11.635-4.132-12.904-10.339s2.14-12.284 7.811-14.574c1.279-.516 2.028-1.847 1.752-3.198l-2.982-14.586c-.276-1.351-1.487-2.281-2.866-2.254-6.115.119-11.635-4.132-12.904-10.339s2.14-12.284 7.811-14.574c1.279-.516 2.028-1.847 1.751-3.198l-2.982-14.586c-.276-1.351-1.487-2.281-2.866-2.254-6.115.119-11.635-4.132-12.904-10.339s2.14-12.284 7.811-14.574c1.279-.516 2.028-1.847 1.752-3.198l-2.904-14.206c-.313-1.53-1.807-2.517-3.338-2.205z" fill="#faf7f7"/></g><path d="m94.934 87.487h83.313v84.183h-83.313z" fill="#cb97e7" transform="matrix(.98 -.2 .2 .98 -23.185 29.982)"/></g><path d="m375.5 478.333h-326.829c-8.194 0-14.837-6.643-14.837-14.837v-18.326c0-8.194 6.643-14.837 14.837-14.837h326.829z" fill="#faf7f7"/><path d="m335.5 430.333h40v48h-40z" fill="#dedbee"/><path d="m340.5 270.333h36.333c5.523 0 10-4.477 10-10v-63.333c0-5.523-4.477-10-10-10h-36.333c-23.012 0-41.667 18.655-41.667 41.667 0 23.012 18.655 41.666 41.667 41.666z" fill="#ab695d"/><path d="m293.498 382.349-119.512-69c-4.783-2.761-6.422-8.877-3.66-13.66l31.5-54.56c2.761-4.783 8.877-6.422 13.66-3.66l119.512 69c4.783 2.761 6.422 8.877 3.66 13.66l-31.5 54.56c-2.762 4.783-8.877 6.421-13.66 3.66z" fill="#fee45a"/></g><g><path d="m113.559 398.829c-37.128 0-67.333-30.205-67.333-67.333s30.205-67.334 67.333-67.334 67.334 30.206 67.334 67.334-30.206 67.333-67.334 67.333z" fill="#faf7f7"/><circle cx="113.56" cy="331.495" fill="#9ad4fe" r="42.333"/></g><circle cx="342.749" cy="228.667" fill="#faf7f7" r="16.835"/></g><g><path d="m449.614 33.5h-.07c-6.842 0-12.389 5.547-12.389 12.389v59.923h24.849v-59.923c0-6.842-5.547-12.389-12.39-12.389z" fill="#685e68"/><path d="m475.485 89.818v125.021l-25.906 31.495-25.906-31.495v-125.021c0-5.691 4.639-10.304 10.362-10.304h31.087c5.724 0 10.363 4.613 10.363 10.304z" fill="#fee45a"/><path d="m423.674 214.838h51.812c0 118.215-11.883 208.041-15.933 235.219-.73 4.9-4.936 8.521-9.89 8.521h-.124c-4.971 0-9.185-3.648-9.897-8.568-4.016-27.728-15.968-119.941-15.968-235.172z" fill="#685e68"/></g></g><g><path d="m202.465 63.834c4.644-1.875 7.289-6.777 6.291-11.654l-2.903-14.205c-1.839-6.05-5.901-8.734-12.188-8.051l-14.206 2.903s-.001 0-.002 0c-4.879.998-8.348 5.356-8.249 10.36.052 2.609-1.774 4.885-4.342 5.41-2.571.521-5.141-.853-6.118-3.274-1.876-4.641-6.775-7.289-11.654-6.288l-14.588 2.981c-4.879.998-8.348 5.356-8.249 10.36.052 2.609-1.775 4.885-4.342 5.41-2.57.521-5.14-.853-6.117-3.272-1.874-4.641-6.771-7.283-11.655-6.291l-14.586 2.982c-4.876.997-8.347 5.353-8.251 10.361.052 2.608-1.774 4.883-4.342 5.408-2.571.522-5.14-.852-6.117-3.271-1.874-4.643-6.775-7.292-11.654-6.291l-14.205 2.903c-6.05 1.839-8.733 5.902-8.051 12.188l2.903 14.201c.98 4.815 5.232 8.258 10.151 8.258.105 0 .208-.004.316-.004 2.564 0 4.785 1.812 5.303 4.344.524 2.567-.852 5.141-3.271 6.118-4.643 1.875-7.289 6.776-6.291 11.654l2.981 14.588c.984 4.811 5.235 8.251 10.15 8.251.069 0 .14-.001.21-.002 2.622-.05 4.884 1.775 5.41 4.342.524 2.567-.852 5.141-3.27 6.117-4.645 1.873-7.291 6.775-6.293 11.655l2.981 14.586c.983 4.811 5.235 8.253 10.159 8.252.066 0 .135 0 .202-.002.036 0 .071-.001.106-.001 2.564 0 4.784 1.812 5.302 4.345.524 2.566-.851 5.139-3.271 6.116-4.643 1.875-7.289 6.776-6.291 11.654l2.903 14.205c1.088 5.321 7.014 9.11 12.188 8.051l14.206-2.903c4.879-.997 8.349-5.355 8.25-10.36-.052-2.609 1.775-4.885 4.343-5.41 2.57-.52 5.14.852 6.117 3.274 1.877 4.64 6.777 7.292 11.654 6.288l14.587-2.981c4.879-.997 8.349-5.355 8.25-10.36-.052-2.609 1.775-4.885 4.342-5.41 2.562-.52 5.14.852 6.116 3.268 1.872 4.646 6.777 7.294 11.656 6.295l14.586-2.981c4.876-.997 8.347-5.353 8.251-10.36-.052-2.609 1.774-4.884 4.343-5.409 2.569-.519 5.14.852 6.116 3.271 1.874 4.643 6.774 7.291 11.654 6.291l14.205-2.903c6.05-1.839 8.734-5.902 8.051-12.188l-2.903-14.206c-.983-4.812-5.234-8.252-10.15-8.252-.069 0-.14.001-.21.002-2.622.084-4.884-1.776-5.41-4.342-.524-2.567.852-5.141 3.274-6.118 4.641-1.876 7.286-6.777 6.288-11.654l-2.981-14.588c-.998-4.879-5.337-8.351-10.36-8.249-2.607.103-4.885-1.774-5.409-4.343-.524-2.567.851-5.14 3.267-6.115 4.644-1.871 7.292-6.771 6.296-11.657l-2.982-14.585c-.983-4.811-5.235-8.253-10.158-8.253-.066 0-.135.001-.202.002-2.592.05-4.885-1.774-5.409-4.342s.852-5.141 3.272-6.119zm-1.494 25.155 1.575 7.704c-6.917 4.498-10.566 12.866-8.858 21.213 1.705 8.347 8.344 14.61 16.473 16.034l1.574 7.704c-6.916 4.498-10.564 12.866-8.858 21.214 1.707 8.346 8.346 14.609 16.474 16.033l1.265 6.188-6.188 1.265c-4.499-6.918-12.871-10.565-21.213-8.858-8.348 1.706-14.612 8.346-16.034 16.473l-7.704 1.574c-4.498-6.915-12.861-10.566-21.214-8.858-8.346 1.707-14.609 8.346-16.033 16.474l-7.704 1.574c-4.497-6.916-12.858-10.568-21.212-8.858-8.347 1.705-14.611 8.345-16.035 16.474l-6.188 1.265-1.265-6.188c6.917-4.498 10.565-12.866 8.858-21.213-1.706-8.349-8.347-14.614-16.473-16.035l-1.574-7.703c6.916-4.498 10.564-12.866 8.858-21.214-1.707-8.346-8.346-14.61-16.474-16.033l-1.574-7.703c6.916-4.498 10.564-12.866 8.858-21.214-1.706-8.347-8.345-14.611-16.473-16.034l-1.265-6.188 6.188-1.265c4.497 6.917 12.863 10.568 21.212 8.858 8.349-1.706 14.614-8.347 16.035-16.473l7.704-1.575c4.497 6.918 12.864 10.571 21.213 8.859 8.346-1.707 14.609-8.346 16.033-16.474l7.704-1.574c4.498 6.917 12.871 10.57 21.213 8.858 8.347-1.706 14.61-8.345 16.034-16.474l6.188-1.265 1.265 6.188c-6.916 4.497-10.564 12.865-8.858 21.212 1.706 8.349 8.347 14.613 16.473 16.035z"/><path d="m173.107 73.738c-1.659-1.097-3.687-1.489-5.636-1.09l-81.624 16.687c-4.059.829-6.676 4.792-5.846 8.85l16.86 82.478c.788 3.853 5.095 6.619 8.85 5.846l81.625-16.687c4.059-.829 6.676-4.792 5.846-8.85l-16.86-82.478c-.399-1.949-1.555-3.66-3.215-4.756zm-63.052 96.572-13.855-67.781 66.929-13.682 13.855 67.781z"/><path d="m383 180.643v-163.143c0-9.649-7.851-17.5-17.5-17.5h-318c-26.191 0-47.5 21.309-47.5 47.5v49.5c0 4.143 3.357 7.5 7.5 7.5s7.5-3.357 7.5-7.5v-49.5c0-17.921 14.579-32.5 32.5-32.5h318c1.379 0 2.5 1.121 2.5 2.5v162h-27.5c-27.11 0-49.167 22.057-49.167 49.167s22.057 49.166 49.167 49.166h27.5v145h-319.329c-12.317 0-22.338 10.021-22.338 22.338v18.325c0 12.316 10.021 22.337 22.338 22.337h319.329v8.667c0 1.379-1.121 2.5-2.5 2.5h-318c-17.921 0-32.5-14.579-32.5-32.5v-336.482c0-4.143-3.357-7.5-7.5-7.5s-7.5 3.357-7.5 7.5v336.482c0 26.191 21.309 47.5 47.5 47.5h318c9.649 0 17.5-7.851 17.5-17.5v-217.81c6.611-2.502 11.333-8.88 11.333-16.357v-63.333c0-7.477-4.722-13.855-11.333-16.357zm-76.667 48.024c0-18.84 15.327-34.167 34.167-34.167h36.333c1.379 0 2.5 1.121 2.5 2.5v63.333c0 1.379-1.121 2.5-2.5 2.5h-36.333c-18.84 0-34.167-15.327-34.167-34.166zm-257.662 242.166c-4.046 0-7.338-3.291-7.338-7.337v-18.325c0-4.046 3.292-7.338 7.338-7.338h319.329v33z"/><path d="m205.956 233.226c-4.515 1.21-8.288 4.105-10.625 8.153l-24.356 42.186c-13.738-16.429-34.374-26.903-57.415-26.903-41.263 0-74.833 33.57-74.833 74.834 0 41.263 33.57 74.833 74.833 74.833 41.264 0 74.834-33.57 74.834-74.833 0-.398-.024-.79-.03-1.187l101.384 58.534c8.346 4.818 19.137 1.857 23.906-6.405l31.5-54.56c4.824-8.356 1.951-19.08-6.405-23.905l-119.512-69c-4.049-2.336-8.765-2.959-13.281-1.747zm-92.396 158.103c-32.992 0-59.833-26.841-59.833-59.833s26.841-59.834 59.833-59.834 59.834 26.842 59.834 59.834-26.842 59.833-59.834 59.833zm218.603-70.95-31.5 54.56c-.886 1.248-2.024 1.553-3.415.915l-111.614-64.44c-1.349-4.835-3.171-9.471-5.415-13.86l28.102-48.674c.885-1.248 2.024-1.553 3.415-.915l119.511 69c1.194.688 1.606 2.221.916 3.414z"/><path d="m113.56 281.662c-27.478 0-49.833 22.355-49.833 49.833 0 27.479 22.355 49.834 49.833 49.834s49.833-22.355 49.833-49.834c0-27.477-22.356-49.833-49.833-49.833zm0 84.667c-19.207 0-34.833-15.626-34.833-34.834 0-19.207 15.626-34.833 34.833-34.833s34.833 15.626 34.833 34.833c0 19.208-15.626 34.834-34.833 34.834z"/><path d="m207.504 284.78c-2.071 3.587-.842 8.174 2.745 10.245l80.985 46.757c1.182.682 2.471 1.006 3.743 1.006 2.592 0 5.113-1.345 6.502-3.751 2.071-3.587.842-8.174-2.745-10.245l-80.985-46.757c-3.59-2.07-8.175-.843-10.245 2.745z"/><path d="m334.655 67.5h-79.342c-4.143 0-7.5 3.357-7.5 7.5s3.357 7.5 7.5 7.5h79.342c4.143 0 7.5-3.357 7.5-7.5s-3.357-7.5-7.5-7.5z"/><path d="m334.655 105.807h-49.822c-4.143 0-7.5 3.357-7.5 7.5s3.357 7.5 7.5 7.5h49.822c4.143 0 7.5-3.357 7.5-7.5s-3.357-7.5-7.5-7.5z"/><path d="m342.749 204.332c-13.418 0-24.335 10.917-24.335 24.335s10.917 24.334 24.335 24.334 24.334-10.916 24.334-24.334-10.916-24.335-24.334-24.335zm0 33.669c-5.147 0-9.335-4.188-9.335-9.334 0-5.147 4.188-9.335 9.335-9.335 5.146 0 9.334 4.188 9.334 9.335 0 5.146-4.187 9.334-9.334 9.334z"/><path d="m482.985 102.449v-12.632c0-8.308-5.747-15.285-13.481-17.24v-26.687c0-10.967-8.923-19.89-19.89-19.89h-.07c-10.967 0-19.889 8.923-19.889 19.89v26.688c-7.734 1.955-13.481 8.931-13.481 17.24v125.021c0 116.406 12.281 210.256 16.045 236.246.861 5.949 4.734 10.874 9.919 13.322l-.059 14.062c-.018 4.143 3.326 7.514 7.469 7.531h.032c4.127 0 7.481-3.338 7.499-7.469l.059-14.106c5.154-2.41 8.938-7.262 9.833-13.262 1.691-11.352 4.998-35.341 8.144-68.472.392-4.124-2.635-7.784-6.758-8.176-4.117-.382-7.783 2.635-8.176 6.758-3.112 32.785-6.377 56.476-8.046 67.679-.427 2.863-4.661 2.816-5.07-.017-3.647-25.181-15.366-114.676-15.874-226.597h36.779c-.184 43.063-1.943 86.509-5.239 129.267-.318 4.13 2.771 7.735 6.901 8.054 4.137.333 7.736-2.771 8.054-6.901 3.517-45.621 5.3-92.024 5.3-137.919v-97.055c8.072 2.252 14.015 9.604 14.015 18.323v135.252c0 4.143 3.357 7.5 7.5 7.5s7.5-3.357 7.5-7.5v-135.253c-.001-17.02-12.609-31.162-29.016-33.657zm-15 104.889h-36.812v-90.279h36.812zm-36.811-105.279v-12.242c0-1.546 1.284-2.804 2.862-2.804h31.087c1.578 0 2.862 1.258 2.862 2.804v12.241h-36.811zm13.481-56.169c0-2.696 2.193-4.89 4.889-4.89h.07c2.696 0 4.89 2.193 4.89 4.89v26.124h-9.849z"/></g></g></svg>